<?xml version="1.0" encoding="UTF-8" standalone="no"?>
<!-- Created with Inkscape (http://www.inkscape.org/) -->

<svg
   xmlns:dc="http://purl.org/dc/elements/1.1/"
   xmlns:cc="http://creativecommons.org/ns#"
   xmlns:rdf="http://www.w3.org/1999/02/22-rdf-syntax-ns#"
   xmlns:svg="http://www.w3.org/2000/svg"
   xmlns="http://www.w3.org/2000/svg"
   xmlns:sodipodi="http://sodipodi.sourceforge.net/DTD/sodipodi-0.dtd"
   xmlns:inkscape="http://www.inkscape.org/namespaces/inkscape"
   width="60"
   height="60"
   viewBox="0 0 15.875 15.875"
   version="1.1"
   id="svg8"
   inkscape:version="0.92.2 (5c3e80d, 2017-08-06)"
   sodipodi:docname="soil.svg"
   inkscape:export-filename="C:\Users\Tyler\Desktop\IRB\sprites\soil.png"
   inkscape:export-xdpi="96"
   inkscape:export-ydpi="96">
  <defs
     id="defs2" />
  <sodipodi:namedview
     id="base"
     pagecolor="#a0502d"
     bordercolor="#666666"
     borderopacity="1.0"
     inkscape:pageopacity="1"
     inkscape:pageshadow="2"
     inkscape:zoom="12"
     inkscape:cx="26.611886"
     inkscape:cy="29.571475"
     inkscape:document-units="mm"
     inkscape:current-layer="layer1"
     showgrid="true"
     units="px"
     inkscape:window-width="1920"
     inkscape:window-height="1027"
     inkscape:window-x="-8"
     inkscape:window-y="-8"
     inkscape:window-maximized="1">
    <inkscape:grid
       type="xygrid"
       id="grid815" />
  </sodipodi:namedview>
  <metadata
     id="metadata5">
    <rdf:RDF>
      <cc:Work
         rdf:about="">
        <dc:format>image/svg+xml</dc:format>
        <dc:type
           rdf:resource="http://purl.org/dc/dcmitype/StillImage" />
        <dc:title></dc:title>
      </cc:Work>
    </rdf:RDF>
  </metadata>
  <g
     inkscape:label="Layer 1"
     inkscape:groupmode="layer"
     id="layer1"
     transform="translate(0,-281.12497)">
    <path
       style="fill:#000000;fill-opacity:1;stroke:none;stroke-width:0.26458332;stroke-linecap:round;stroke-linejoin:round;stroke-miterlimit:4;stroke-dasharray:none;stroke-opacity:1"
       id="path817"
       d="m 1.2119487,283.4574 c 0.1230348,-0.0615 0.2503172,-0.11395 0.3776597,-0.16573 0.1223634,-0.046 0.2385848,-0.10643 0.3567653,-0.16197 0.1032101,-0.0528 0.2079837,-0.10277 0.3165386,-0.14358 0.067366,-0.0245 0.1327222,-0.053 0.1950419,-0.0884 -0.085033,0.0488 -0.1697622,0.0981 -0.2550995,0.14628 -0.00812,0.005 0.015689,-0.0101 0.0234,-0.0153 0.025292,-0.0172 0.049842,-0.0358 0.0764,-0.0511 0.1019939,-0.0588 0.2044107,-0.11678 0.306616,-0.17517 0.052596,-0.0244 0.104579,-0.0503 0.1577494,-0.0735 0.045164,-0.0242 0.093285,-0.0424 0.1429758,-0.0547 0.058708,-0.0122 0.1191387,-0.015 0.1787445,-0.01 0.070941,0.003 0.1325894,0.0378 0.1937626,0.0705 0.066511,0.0365 0.1265735,0.083 0.1894065,0.12506 0.05511,0.0358 0.1074018,0.0756 0.1584484,0.11701 0.052486,0.042 0.1031909,0.0866 0.1570566,0.1268 0.040201,0.0351 0.089291,0.0553 0.135291,0.0806 0.033668,0.0162 0.068149,0.0304 0.1017678,0.0467 0.043802,0.0216 0.088776,0.0402 0.1335656,0.0597 0.045599,0.0257 0.093437,0.0464 0.1408221,0.0683 0.043611,0.0193 0.087631,0.0372 0.1323779,0.0538 0.034231,0.0243 0.075046,0.0298 0.1136682,0.0426 0.040759,0.0135 0.083483,0.0172 0.1260626,0.0195 0.029166,10e-4 0.058362,10e-4 0.087547,10e-4 0,0 -0.2647926,0.19204 -0.2647926,0.19204 v 0 c -0.029612,-4e-4 -0.059247,-8.2e-4 -0.088789,-0.003 -0.044243,-0.004 -0.08805,-0.0111 -0.1303163,-0.0253 -0.040069,-0.0107 -0.078104,-0.0249 -0.1146265,-0.0448 -0.044846,-0.0176 -0.089541,-0.0354 -0.1333368,-0.0555 -0.047501,-0.0211 -0.093262,-0.0454 -0.140073,-0.0679 -0.045583,-0.0188 -0.090096,-0.0397 -0.1351775,-0.0597 -0.034759,-0.0149 -0.068563,-0.0319 -0.1024271,-0.0487 -0.047945,-0.0249 -0.095161,-0.051 -0.1368679,-0.0859 -0.052961,-0.0418 -0.1047694,-0.0852 -0.1572956,-0.12753 -0.050708,-0.0405 -0.1028234,-0.0792 -0.1569209,-0.11505 -0.060808,-0.0428 -0.1208961,-0.0871 -0.1867183,-0.12204 -0.059192,-0.0299 -0.118676,-0.0582 -0.1865715,-0.0587 -0.058284,-0.001 -0.1169408,0.003 -0.1732177,0.019 -0.048253,0.0156 -0.094629,0.036 -0.1400437,0.0585 -0.052121,0.0246 -0.104964,0.0476 -0.1560789,0.0743 0.083666,-0.0488 0.1671174,-0.0981 0.2509985,-0.14651 0.00877,-0.005 -0.017027,0.011 -0.025657,0.0163 -0.033695,0.0207 -0.018952,0.01 -0.050998,0.0331 -0.1365843,0.0999 0.2428839,-0.13696 -0.3256346,0.19309 -0.063163,0.032 -0.1282541,0.059 -0.1948225,0.0832 -0.1070129,0.0429 -0.2110314,0.0923 -0.3139137,0.14434 -0.1176535,0.0553 -0.2339948,0.11387 -0.3559964,0.15927 -0.1291138,0.0531 -0.2581661,0.10692 -0.38177475,0.1721 0,0 0.25448285,-0.20356 0.25448285,-0.20356 z"
       inkscape:connector-curvature="0" />
    <path
       style="fill:#000000;fill-opacity:1;stroke:none;stroke-width:0.26458332;stroke-linecap:round;stroke-linejoin:round;stroke-miterlimit:4;stroke-dasharray:none;stroke-opacity:1"
       id="path819"
       d="m 6.0564613,285.08163 c 0.1187937,-0.0489 0.4206134,-0.22885 -0.05598,0.043 0.073909,-0.0451 0.1435693,-0.0963 0.2096355,-0.15209 0.043348,-0.0338 0.083675,-0.0712 0.1263576,-0.10578 0.047431,-0.0313 0.088835,-0.0702 0.1309338,-0.10805 0.047259,-0.0432 0.086421,-0.094 0.1264912,-0.14364 0.025839,-0.03 0.050141,-0.0615 0.078748,-0.089 0.1261272,-0.0969 0.2810719,-0.17132 0.4147124,-0.2472 0.050862,-0.026 0.1046181,-0.0466 0.1594345,-0.0625 0.081594,-0.026 0.1668616,-0.0359 0.2518828,-0.0424 0.068387,-0.005 0.1369605,-0.005 0.2054839,-0.005 0.062657,-0.002 0.1240303,0.0115 0.1846575,0.0254 0.055636,0.007 0.1086281,0.0249 0.162117,0.041 0.052226,0.0188 0.1037053,0.0353 0.1511478,0.0646 0.044945,0.0225 0.084215,0.0529 0.1248537,0.0819 0.039316,0.0297 0.078674,0.0597 0.1201735,0.0863 0.042573,0.0307 0.086563,0.0589 0.1330176,0.0834 0.055364,0.0284 0.1028571,0.0687 0.1542918,0.10314 0.053131,0.0367 0.1030682,0.0778 0.1546172,0.11673 0.038822,0.0385 0.085935,0.0653 0.1326703,0.0927 0.038843,0.0222 0.082337,0.0283 0.1261695,0.0315 0.048929,0.002 0.097935,0.002 0.1468995,0.002 0.061037,0.004 0.1166641,-0.0206 0.1696937,-0.0479 0.1150123,-0.0534 0.036796,-0.0179 -0.2330783,0.13568 -0.00661,0.004 0.013144,-0.008 0.019685,-0.0115 0.012912,-0.008 0.025366,-0.0161 0.038415,-0.0235 0.099918,-0.0569 0.2001343,-0.11326 0.3002013,-0.16989 0.097158,-0.0584 0.2350381,-0.13197 -0.2315462,0.13293 -0.00499,0.003 0.00921,-0.007 0.014176,-0.01 0.2958425,-0.17199 0.1861981,-0.14053 0.3132156,-0.17513 0.031992,-0.003 0.061989,-0.009 0.092801,-0.0174 0,0 -0.2602066,0.19931 -0.2602066,0.19931 v 0 c -0.030174,0.007 -0.061837,0.008 -0.090557,0.0205 -0.105493,0.0544 -0.031592,0.0166 0.2501763,-0.14651 0.00495,-0.003 -0.0096,0.006 -0.014536,0.009 -0.1063347,0.0625 -0.2163895,0.13396 -0.3294203,0.19088 0.6472523,-0.37513 -0.054175,0.0346 -0.1243819,0.0683 -0.057238,0.0241 -0.1152274,0.0415 -0.1782596,0.0366 -0.049968,1.1e-4 -0.1000961,0.001 -0.1498846,-0.004 -0.047115,-0.006 -0.092747,-0.0179 -0.1336326,-0.0432 -0.047685,-0.0278 -0.092984,-0.0588 -0.133328,-0.0967 -0.051401,-0.0385 -0.1012553,-0.0791 -0.1541561,-0.11543 -0.049799,-0.0351 -0.098537,-0.0716 -0.1529373,-0.0996 -0.047069,-0.0254 -0.091051,-0.0555 -0.1350341,-0.0858 -0.041189,-0.0281 -0.081673,-0.0572 -0.1213935,-0.0873 -0.039096,-0.0293 -0.079374,-0.0563 -0.122497,-0.0795 -0.046378,-0.0255 -0.096881,-0.0407 -0.1466443,-0.0584 -0.052872,-0.0161 -0.106268,-0.0294 -0.1606936,-0.0391 -0.059114,-0.013 -0.1192274,-0.0221 -0.1799826,-0.0198 -0.067589,2.1e-4 -0.1352507,9.8e-4 -0.2026631,0.006 -0.084323,0.008 -0.1683473,0.0206 -0.2485615,0.0491 -0.053828,0.019 -0.1068729,0.0402 -0.1573371,0.0671 0.4876059,-0.28327 0.2522913,-0.14932 0.1433523,-0.0803 -0.030369,0.0255 -0.056419,0.0544 -0.080904,0.0856 -0.044457,0.0471 -0.079903,0.10226 -0.1264814,0.1477 -0.041503,0.0382 -0.081576,0.0786 -0.1279613,0.1107 -0.046702,0.0303 -0.083427,0.0727 -0.1294138,0.10412 -0.065748,0.0578 -0.13506,0.11124 -0.2096428,0.15725 -0.1651236,0.0968 -0.3255748,0.20149 -0.5017823,0.27689 0,0 0.2568869,-0.20302 0.2568869,-0.20302 z"
       inkscape:connector-curvature="0" />
    <path
       style="fill:#000000;fill-opacity:1;stroke:none;stroke-width:0.26458332;stroke-linecap:round;stroke-linejoin:round;stroke-miterlimit:4;stroke-dasharray:none;stroke-opacity:1"
       id="path821"
       d="m 0.98212637,286.08105 c 0.080659,-0.0532 0.16032293,-0.10773 0.23677723,-0.16687 0.056881,-0.0408 0.1109792,-0.0844 0.1617157,-0.13262 0.041268,-0.0455 0.084536,-0.0886 0.131408,-0.12831 0.144391,-0.12243 0.2871192,-0.18854 0.4591968,-0.22587 0.064027,-0.0139 0.1295291,-0.0163 0.194778,-0.0176 0.066949,-0.003 0.1331111,-0.002 0.1994905,0.007 0.066838,0.003 0.1235927,0.0364 0.1821519,0.0647 0.057971,0.03 0.1128575,0.0655 0.1706039,0.0959 0.048076,0.0299 0.096193,0.0584 0.1478711,0.0815 0.06045,0.025 0.1220623,0.0468 0.1826778,0.0712 0.050758,0.0198 0.1042237,0.0316 0.155587,0.0495 0.0435,0.0162 0.089265,0.022 0.135261,0.0249 0.0291,0.002 0.058184,0.004 0.084706,-0.0109 0.00626,-0.003 0.023627,-0.0161 0.017391,-0.0126 -0.087737,0.0494 -0.1746705,0.1002 -0.262006,0.15031 0.044237,-0.0253 0.08198,-0.0601 0.1175829,-0.0961 0.030772,-0.0345 0.064796,-0.0661 0.1015122,-0.0941 0.00589,-0.004 0.011679,-0.007 0.017666,-0.0109 0.107709,-0.0623 0.2090219,-0.13844 0.3248266,-0.18397 0.024061,-0.009 0.049153,-0.015 0.073434,-0.0239 0.054588,-0.0168 0.1114259,-0.0208 0.1680903,-0.0237 0.065236,-0.002 0.1305087,-0.001 0.1957623,-0.001 0.063819,0.003 0.113505,0.036 0.1607439,0.0756 0.046154,0.0394 0.084905,0.086 0.1272625,0.12912 0.038678,0.0503 0.083497,0.0928 0.1316924,0.13336 0.032015,0.0273 0.070619,0.0334 0.1110779,0.0363 0.043291,0.003 0.078548,0.003 0.1204555,-0.008 0.024818,-0.009 0.052018,-0.006 0.077301,-0.0109 0.011642,-0.002 0.0225,-0.008 0.033862,-0.0111 0.031675,-0.009 0.064511,-0.0106 0.097127,-0.0123 0,0 -0.2633509,0.19444 -0.2633509,0.19444 v 0 c -0.031718,0.003 -0.063195,0.008 -0.093723,0.0175 -0.037004,0.009 -0.075434,0.0105 -0.1123514,0.0203 -0.041785,0.006 -0.084386,0.003 -0.1263311,-4e-4 -0.045209,-0.007 -0.086676,-0.0213 -0.1210625,-0.0529 -0.04824,-0.0417 -0.091339,-0.0875 -0.1325113,-0.13626 -0.041504,-0.0424 -0.079637,-0.0881 -0.1256654,-0.12581 -0.044185,-0.0348 -0.08983,-0.0593 -0.1479883,-0.0574 -0.064971,-2e-4 -0.130011,-5.6e-4 -0.1948937,0.003 -0.055432,0.004 -0.1107048,0.0115 -0.1631505,0.031 -0.024212,0.008 -0.048056,0.0157 -0.070967,0.0269 -0.00769,0.004 -0.030077,0.0164 -0.022672,0.0121 0.02922,-0.017 0.3607858,-0.20869 0.240701,-0.13928 -0.041069,0.0203 -0.073205,0.0548 -0.1060672,0.0861 -0.032934,0.0396 -0.071787,0.0742 -0.1128766,0.10515 -0.1813557,0.10416 -0.2403644,0.19565 -0.4118213,0.18051 -0.047521,-0.005 -0.09418,-0.0146 -0.139102,-0.0314 -0.052313,-0.0161 -0.1051806,-0.031 -0.1560134,-0.0515 -0.061406,-0.0236 -0.122504,-0.0478 -0.1834576,-0.0726 -0.052147,-0.0238 -0.100075,-0.0544 -0.1494295,-0.0834 -0.056378,-0.0317 -0.1113417,-0.066 -0.1692974,-0.0949 -0.056332,-0.0275 -0.1122344,-0.0531 -0.1761937,-0.0556 -0.065271,-0.007 -0.1307875,-0.005 -0.1963272,-0.003 -0.064141,0.003 -0.1283769,0.007 -0.1909027,0.0228 -0.031807,0.008 -0.064475,0.0152 -0.095236,0.0269 -0.00965,0.004 -0.037158,0.0178 -0.028329,0.0125 0.082862,-0.0501 0.1670855,-0.098 0.2506282,-0.14696 -0.00829,0.005 -0.016576,0.0102 -0.024863,0.0152 -0.0497,0.0356 -0.093603,0.0788 -0.1337262,0.12484 -0.048714,0.0518 -0.103214,0.0972 -0.1621946,0.13713 -0.074803,0.0594 -0.1525932,0.11473 -0.2326937,0.16681 0,0 -0.30413353,0.12013 -0.30413353,0.12013 z"
       inkscape:connector-curvature="0" />
    <path
       style="fill:#000000;fill-opacity:1;stroke:none;stroke-width:0.26458332;stroke-linecap:round;stroke-linejoin:round;stroke-miterlimit:4;stroke-dasharray:none;stroke-opacity:1"
       id="path823"
       d="m 9.0682054,287.03371 c 0.0623,-0.0601 0.1216544,-0.12328 0.1798812,-0.18735 0.058506,-0.0645 0.119148,-0.12707 0.1824726,-0.18681 0.061691,-0.0635 0.1352544,-0.11205 0.2080588,-0.16142 0.1200195,-0.0817 0.2495658,-0.149 0.377009,-0.21778 0.03303,-0.0178 0.09096,-0.0302 0.127407,-0.04 0.08595,-0.0154 0.172101,-0.03 0.258452,-0.0432 0.06098,-0.0145 0.120042,-0.0342 0.181847,-0.0451 0.06045,-0.0183 0.123523,-0.0248 0.186237,-0.0297 0.05035,-0.005 0.101983,-6.3e-4 0.149833,0.0162 0.04683,0.0144 0.08341,0.048 0.119093,0.08 0.04453,0.0395 0.08664,0.0815 0.131974,0.12008 0.0411,0.0278 0.08567,0.0503 0.128495,0.0755 0.0487,0.0324 0.09637,0.0665 0.142976,0.1019 0.04361,0.0265 0.08876,0.05 0.131917,0.0773 0.04169,0.0195 0.08262,0.0402 0.122513,0.0633 0.03922,0.025 0.08552,0.0269 0.12899,0.0386 0.04267,0.012 0.08677,0.016 0.130853,0.0182 0.04387,0.002 0.08778,10e-4 0.131675,10e-4 0.01899,6.4e-4 0.04035,-0.002 0.05816,-0.009 0.01014,-0.004 0.01882,-0.0114 0.0286,-0.0165 -0.08935,0.051 -0.178695,0.10204 -0.268043,0.15306 0.02961,-0.0145 0.04498,-0.0431 0.06844,-0.0644 0.120335,-0.0785 0.235238,-0.18057 0.380155,-0.19364 0.02769,-0.002 0.01375,-9.2e-4 0.04181,-0.002 0,0 -0.263695,0.19387 -0.263695,0.19387 v 0 c -0.02718,0.002 -0.01375,7.9e-4 -0.0403,0.004 -0.01496,0.003 -0.0216,0.004 -0.03585,0.009 -0.0053,0.002 -0.02051,0.01 -0.01561,0.007 0.471939,-0.27709 0.330662,-0.19922 0.239402,-0.1371 -0.03985,0.0152 -0.03705,0.0402 -0.06903,0.0628 -0.141152,0.0822 -0.235331,0.18751 -0.388673,0.185 -0.04433,-10e-5 -0.0887,-1.1e-4 -0.132948,-0.003 -0.04525,-0.004 -0.09004,-0.0106 -0.133907,-0.0227 -0.04669,-0.01 -0.09278,-0.0206 -0.133798,-0.0463 -0.04082,-0.0222 -0.08283,-0.0419 -0.123514,-0.0643 -0.04421,-0.0269 -0.08963,-0.0517 -0.132769,-0.0803 -0.04593,-0.0343 -0.09207,-0.0687 -0.141238,-0.0983 -0.04467,-0.0254 -0.09091,-0.049 -0.131359,-0.0809 -0.04499,-0.0391 -0.08675,-0.0817 -0.132282,-0.12027 -0.03366,-0.0288 -0.06808,-0.0569 -0.112176,-0.0675 -0.04675,-0.0105 -0.09396,-0.0131 -0.141628,-0.007 -0.06217,0.006 -0.12346,0.0167 -0.183976,0.0324 -0.061,0.0133 -0.120139,0.0341 -0.182008,0.0436 -0.08506,0.0134 -0.1707754,0.0244 -0.254384,0.0452 -0.04012,0.0123 -0.049943,0.0145 -0.088669,0.0296 -0.012465,0.005 -0.048376,0.0226 -0.036983,0.0156 0.44575,-0.27455 0.276086,-0.16266 0.1786686,-0.10292 -0.072168,0.0497 -0.1489501,0.0939 -0.2106107,0.1572 -0.063846,0.0588 -0.1245386,0.12079 -0.1836235,0.18431 -0.057355,0.0636 -0.1155213,0.1264 -0.1756799,0.18736 0,0 -0.3021552,0.12516 -0.3021552,0.12516 z"
       inkscape:connector-curvature="0" />
    <path
       style="fill:#000000;fill-opacity:1;stroke:none;stroke-width:0.26458332;stroke-linecap:round;stroke-linejoin:round;stroke-miterlimit:4;stroke-dasharray:none;stroke-opacity:1"
       id="path825"
       d="m 4.8296673,287.53757 c -0.05764,-0.0862 -0.12165,-0.1679 -0.189082,-0.24662 -0.06282,-0.0814 -0.131398,-0.15783 -0.207394,-0.22702 -0.05815,-0.0532 -0.128367,-0.0872 -0.199858,-0.11813 -0.05702,-0.0197 -0.113588,-0.0417 -0.173156,-0.0524 -0.05935,-0.009 -0.118182,-0.009 -0.177428,-7.4e-4 -0.05794,0.005 -0.109764,0.0299 -0.163211,0.0499 -0.03266,0.0123 -0.06447,0.0272 -0.09527,0.0436 -0.01091,0.006 -0.04297,0.0244 -0.03225,0.0183 0.263859,-0.15139 0.326899,-0.18976 0.217611,-0.12376 -0.04949,0.0294 -0.09825,0.0599 -0.147241,0.0901 -0.9853895,0.56999 0.108209,-0.0628 -0.0442,0.0261 -0.8694737,0.50211 -0.0044,0.002 -0.05078,0.0298 -0.282928,0.16752 -0.199687,0.12923 -0.330266,0.1876 -0.05646,0.0213 -0.109206,0.0509 -0.165363,0.0725 -0.047102,0.0247 -0.094519,0.0487 -0.1450096,0.0659 -0.05265,0.0208 -0.1048337,0.0427 -0.1579346,0.0624 -0.061376,0.0232 -0.1241483,0.0428 -0.1871479,0.0613 -0.055674,0.0165 -0.1132155,0.0231 -0.1709804,0.0259 -0.030472,0.001 -0.060968,0.001 -0.091454,0.001 0,0 0.2645537,-0.19234 0.2645537,-0.19234 v 0 c 0.030012,-2.1e-4 0.060044,-4.5e-4 0.090003,-0.002 0.05595,-0.005 0.1113512,-0.0135 0.1649619,-0.0307 0.06291,-0.0196 0.1257488,-0.0396 0.1869358,-0.0642 0.052637,-0.0208 0.1052301,-0.0417 0.1579711,-0.0623 0.04909,-0.0204 0.09584,-0.0456 0.144491,-0.0669 0.05463,-0.0245 0.109457,-0.0486 0.163802,-0.0738 0.0082,-0.004 0.03252,-0.0178 0.02452,-0.0131 -0.08412,0.0492 -0.33662,0.19645 -0.252894,0.14661 0.10084,-0.06 0.20388,-0.11634 0.304236,-0.17718 0.08374,-0.0508 -0.339153,0.19602 -0.254396,0.14696 0.600545,-0.3476 0.219921,-0.12687 0.04474,-0.0252 0.04882,-0.0314 0.09851,-0.0612 0.148077,-0.0913 0.15367,-0.0901 0.30251,-0.19195 0.469492,-0.25601 0.05418,-0.0217 0.109877,-0.0391 0.168494,-0.0434 0.06142,-0.005 0.123018,-0.002 0.183709,0.009 0.06013,0.0143 0.118263,0.0362 0.175654,0.0589 0.07394,0.0332 0.145104,0.0721 0.204965,0.12765 0.07547,0.0712 0.142936,0.14982 0.206409,0.23189 0.0685,0.0794 0.133122,0.16202 0.196292,0.2457 0,0 -0.281596,0.16623 -0.281596,0.16623 z"
       inkscape:connector-curvature="0" />
    <path
       style="fill:#000000;fill-opacity:1;stroke:none;stroke-width:0.26458332;stroke-linecap:round;stroke-linejoin:round;stroke-miterlimit:4;stroke-dasharray:none;stroke-opacity:1"
       id="path817-2"
       d="m 11.409512,284.23469 c 0.123035,-0.0615 0.250317,-0.11395 0.37766,-0.16573 0.122363,-0.046 0.238584,-0.10643 0.356765,-0.16197 0.10321,-0.0528 0.207984,-0.10277 0.316539,-0.14358 0.06737,-0.0245 0.132722,-0.053 0.195041,-0.0884 -0.08503,0.0488 -0.169762,0.0981 -0.255099,0.14628 -0.0081,0.005 0.01569,-0.0101 0.0234,-0.0153 0.02529,-0.0172 0.04984,-0.0358 0.0764,-0.0511 0.101994,-0.0588 0.204411,-0.11678 0.306616,-0.17517 0.0526,-0.0244 0.104579,-0.0503 0.157749,-0.0735 0.04516,-0.0242 0.09328,-0.0424 0.142976,-0.0547 0.05871,-0.0122 0.119139,-0.015 0.178745,-0.01 0.07094,0.003 0.132589,0.0378 0.193762,0.0705 0.06651,0.0365 0.126574,0.083 0.189407,0.12506 0.05511,0.0358 0.107402,0.0756 0.158448,0.11701 0.05249,0.042 0.103191,0.0866 0.157057,0.1268 0.0402,0.0351 0.08929,0.0553 0.135291,0.0806 0.03367,0.0162 0.06815,0.0304 0.101768,0.0467 0.0438,0.0216 0.08878,0.0402 0.133566,0.0597 0.0456,0.0257 0.09344,0.0464 0.140822,0.0683 0.04361,0.0193 0.08763,0.0372 0.132378,0.0538 0.03423,0.0243 0.07505,0.0298 0.113668,0.0426 0.04076,0.0135 0.08348,0.0172 0.126063,0.0195 0.02917,10e-4 0.05836,10e-4 0.08755,10e-4 0,0 -0.264793,0.19204 -0.264793,0.19204 v 0 c -0.02961,-4e-4 -0.05925,-8.2e-4 -0.08879,-0.003 -0.04424,-0.004 -0.08805,-0.0111 -0.130316,-0.0253 -0.04007,-0.0107 -0.0781,-0.0249 -0.114627,-0.0448 -0.04485,-0.0176 -0.08954,-0.0354 -0.133337,-0.0555 -0.0475,-0.0211 -0.09326,-0.0454 -0.140073,-0.0679 -0.04558,-0.0188 -0.0901,-0.0397 -0.135178,-0.0597 -0.03476,-0.0149 -0.06856,-0.0319 -0.102427,-0.0487 -0.04795,-0.0249 -0.09516,-0.051 -0.136868,-0.0859 -0.05296,-0.0418 -0.104769,-0.0852 -0.157295,-0.12753 -0.05071,-0.0405 -0.102824,-0.0792 -0.156921,-0.11505 -0.06081,-0.0428 -0.120896,-0.0871 -0.186719,-0.12204 -0.05919,-0.0299 -0.118676,-0.0582 -0.186571,-0.0587 -0.05828,-10e-4 -0.116941,0.003 -0.173218,0.019 -0.04825,0.0156 -0.09463,0.036 -0.140043,0.0585 -0.05212,0.0246 -0.104964,0.0476 -0.156079,0.0743 0.08367,-0.0488 0.167117,-0.0981 0.250998,-0.14651 0.0088,-0.005 -0.01703,0.011 -0.02566,0.0163 -0.03369,0.0207 -0.01895,0.01 -0.051,0.0331 -0.136584,0.0999 0.242884,-0.13696 -0.325634,0.19309 -0.06316,0.032 -0.128255,0.059 -0.194823,0.0832 -0.107013,0.0429 -0.211031,0.0923 -0.313914,0.14434 -0.117653,0.0553 -0.233994,0.11387 -0.355996,0.15927 -0.129114,0.0531 -0.258166,0.10692 -0.381775,0.1721 0,0 0.254483,-0.20356 0.254483,-0.20356 z"
       inkscape:connector-curvature="0" />
    <path
       style="fill:#000000;fill-opacity:1;stroke:none;stroke-width:0.26458332;stroke-linecap:round;stroke-linejoin:round;stroke-miterlimit:4;stroke-dasharray:none;stroke-opacity:1"
       id="path817-3"
       d="m 5.588679,288.20344 c 0.123035,-0.0615 0.250317,-0.11395 0.377659,-0.16573 0.122364,-0.046 0.238585,-0.10643 0.356766,-0.16197 0.10321,-0.0528 0.207983,-0.10277 0.316538,-0.14358 0.06737,-0.0245 0.132723,-0.053 0.195042,-0.0884 -0.08503,0.0488 -0.169762,0.0981 -0.255099,0.14628 -0.0081,0.005 0.01569,-0.0101 0.0234,-0.0153 0.02529,-0.0172 0.04984,-0.0358 0.0764,-0.0511 0.101994,-0.0588 0.20441,-0.11678 0.306616,-0.17517 0.0526,-0.0244 0.104579,-0.0503 0.157749,-0.0735 0.04516,-0.0242 0.09328,-0.0424 0.142976,-0.0547 0.05871,-0.0122 0.119139,-0.015 0.178744,-0.01 0.07094,0.003 0.13259,0.0378 0.193763,0.0705 0.06651,0.0365 0.126574,0.083 0.189407,0.12506 0.05511,0.0358 0.107401,0.0756 0.158448,0.11701 0.05249,0.042 0.103191,0.0866 0.157056,0.1268 0.0402,0.0351 0.08929,0.0553 0.135291,0.0806 0.03367,0.0162 0.06815,0.0304 0.101768,0.0467 0.0438,0.0216 0.08878,0.0402 0.133566,0.0597 0.0456,0.0257 0.09344,0.0464 0.140822,0.0683 0.04361,0.0193 0.08763,0.0372 0.132378,0.0538 0.03423,0.0243 0.07505,0.0298 0.113668,0.0426 0.04076,0.0135 0.08348,0.0172 0.126063,0.0195 0.02917,10e-4 0.05836,10e-4 0.08755,10e-4 0,0 -0.264793,0.19204 -0.264793,0.19204 v 0 c -0.02961,-4e-4 -0.05925,-8.2e-4 -0.08879,-0.003 -0.04424,-0.004 -0.08805,-0.0111 -0.130316,-0.0253 -0.04007,-0.0107 -0.0781,-0.0249 -0.114627,-0.0448 -0.04485,-0.0176 -0.08954,-0.0354 -0.133337,-0.0555 -0.0475,-0.0211 -0.09326,-0.0454 -0.140072,-0.0679 -0.04558,-0.0188 -0.0901,-0.0397 -0.135178,-0.0597 -0.03476,-0.0149 -0.06856,-0.0319 -0.102427,-0.0487 -0.04795,-0.0249 -0.09516,-0.051 -0.136868,-0.0859 -0.05296,-0.0418 -0.104769,-0.0852 -0.157296,-0.12753 -0.05071,-0.0405 -0.102823,-0.0792 -0.15692,-0.11505 -0.06081,-0.0428 -0.120897,-0.0871 -0.186719,-0.12204 -0.05919,-0.0299 -0.118676,-0.0582 -0.186571,-0.0587 -0.05828,-10e-4 -0.116941,0.003 -0.173218,0.019 -0.04825,0.0156 -0.09463,0.036 -0.140044,0.0585 -0.05212,0.0246 -0.104964,0.0476 -0.156079,0.0743 0.08367,-0.0488 0.167118,-0.0981 0.250999,-0.14651 0.0088,-0.005 -0.01703,0.011 -0.02566,0.0163 -0.03369,0.0207 -0.01895,0.01 -0.051,0.0331 -0.136584,0.0999 0.242884,-0.13696 -0.325635,0.19309 -0.06316,0.032 -0.128254,0.059 -0.194822,0.0832 -0.107013,0.0429 -0.211032,0.0923 -0.313914,0.14434 -0.117653,0.0553 -0.233995,0.11387 -0.355996,0.15927 -0.129114,0.0531 -0.258166,0.10692 -0.381775,0.1721 0,0 0.254483,-0.20356 0.254483,-0.20356 z"
       inkscape:connector-curvature="0" />
    <path
       style="fill:#000000;fill-opacity:1;stroke:none;stroke-width:0.26458332;stroke-linecap:round;stroke-linejoin:round;stroke-miterlimit:4;stroke-dasharray:none;stroke-opacity:1"
       id="path825-4"
       d="m 12.767167,282.77507 c -0.05764,-0.0862 -0.12165,-0.1679 -0.189082,-0.24662 -0.06282,-0.0814 -0.131398,-0.15783 -0.207394,-0.22702 -0.05815,-0.0532 -0.128367,-0.0872 -0.199858,-0.11813 -0.05702,-0.0197 -0.113588,-0.0417 -0.173156,-0.0524 -0.05935,-0.009 -0.118182,-0.009 -0.177428,-7.4e-4 -0.05794,0.005 -0.109764,0.0299 -0.163211,0.0499 -0.03266,0.0123 -0.06447,0.0272 -0.09527,0.0436 -0.01091,0.006 -0.04297,0.0244 -0.03225,0.0183 0.263859,-0.15139 0.326899,-0.18976 0.217611,-0.12376 -0.04949,0.0294 -0.09825,0.0599 -0.147241,0.0901 -0.98539,0.56999 0.108209,-0.0628 -0.0442,0.0261 -0.869474,0.50211 -0.0044,0.002 -0.05078,0.0298 -0.282929,0.16752 -0.199687,0.12923 -0.330267,0.1876 -0.05646,0.0213 -0.109206,0.0509 -0.165363,0.0725 -0.0471,0.0247 -0.09452,0.0487 -0.145009,0.0659 -0.05265,0.0208 -0.104834,0.0427 -0.157935,0.0624 -0.06138,0.0232 -0.124148,0.0428 -0.187148,0.0613 -0.05567,0.0165 -0.113215,0.0231 -0.17098,0.0259 -0.03047,10e-4 -0.06097,10e-4 -0.09145,10e-4 0,0 0.264554,-0.19234 0.264554,-0.19234 v 0 c 0.03001,-2.1e-4 0.06004,-4.5e-4 0.09,-0.002 0.05595,-0.005 0.111351,-0.0135 0.164962,-0.0307 0.06291,-0.0196 0.125748,-0.0396 0.186935,-0.0642 0.05264,-0.0208 0.10523,-0.0417 0.157971,-0.0623 0.04909,-0.0204 0.09584,-0.0456 0.144492,-0.0669 0.05463,-0.0245 0.109457,-0.0486 0.163802,-0.0738 0.0082,-0.004 0.03252,-0.0178 0.02452,-0.0131 -0.08412,0.0492 -0.336621,0.19645 -0.252895,0.14661 0.100841,-0.06 0.203881,-0.11634 0.304237,-0.17718 0.08374,-0.0508 -0.339154,0.19602 -0.254397,0.14696 0.600546,-0.3476 0.219922,-0.12687 0.04474,-0.0252 0.04882,-0.0314 0.09851,-0.0612 0.148077,-0.0913 0.15367,-0.0901 0.30251,-0.19195 0.469492,-0.25601 0.05418,-0.0217 0.109877,-0.0391 0.168494,-0.0434 0.06142,-0.005 0.123018,-0.002 0.183709,0.009 0.06013,0.0143 0.118263,0.0362 0.175654,0.0589 0.07394,0.0332 0.145104,0.0721 0.204965,0.12765 0.07547,0.0712 0.142936,0.14982 0.206409,0.23189 0.0685,0.0794 0.133122,0.16202 0.196292,0.2457 0,0 -0.281596,0.16623 -0.281596,0.16623 z"
       inkscape:connector-curvature="0" />
    <path
       style="fill:#000000;fill-opacity:1;stroke:none;stroke-width:0.26458332;stroke-linecap:round;stroke-linejoin:round;stroke-miterlimit:4;stroke-dasharray:none;stroke-opacity:1"
       id="path825-6"
       d="m 4.565084,291.77091 c -0.05764,-0.0862 -0.12165,-0.1679 -0.189082,-0.24662 -0.06282,-0.0814 -0.131398,-0.15783 -0.207394,-0.22702 -0.05815,-0.0532 -0.128367,-0.0872 -0.199858,-0.11813 -0.05702,-0.0197 -0.113588,-0.0417 -0.173156,-0.0524 -0.05935,-0.009 -0.118182,-0.009 -0.177428,-7.4e-4 -0.05794,0.005 -0.109764,0.0299 -0.163211,0.0499 -0.03266,0.0123 -0.06447,0.0272 -0.09527,0.0436 -0.01091,0.006 -0.04297,0.0244 -0.03225,0.0183 0.263859,-0.15139 0.326899,-0.18976 0.217611,-0.12376 -0.04949,0.0294 -0.09825,0.0599 -0.147241,0.0901 -0.985389,0.56999 0.108209,-0.0628 -0.0442,0.0261 -0.869473,0.50211 -0.0044,0.002 -0.05078,0.0298 -0.282928,0.16752 -0.199687,0.12923 -0.330266,0.1876 -0.05646,0.0213 -0.109206,0.0509 -0.165363,0.0725 -0.0471,0.0247 -0.09452,0.0487 -0.145009,0.0659 -0.05265,0.0208 -0.104834,0.0427 -0.157935,0.0624 -0.06138,0.0232 -0.124148,0.0428 -0.187148,0.0613 -0.05567,0.0165 -0.113215,0.0231 -0.17098,0.0259 -0.03047,0.001 -0.06097,0.001 -0.09145,0.001 0,0 0.264554,-0.19234 0.264554,-0.19234 v 0 c 0.03001,-2.1e-4 0.06004,-4.5e-4 0.09,-0.002 0.05595,-0.005 0.111351,-0.0135 0.164962,-0.0307 0.06291,-0.0196 0.125748,-0.0396 0.186935,-0.0642 0.05264,-0.0208 0.10523,-0.0417 0.157971,-0.0623 0.04909,-0.0204 0.09584,-0.0456 0.144491,-0.0669 0.05463,-0.0245 0.109457,-0.0486 0.163802,-0.0738 0.0082,-0.004 0.03252,-0.0178 0.02452,-0.0131 -0.08412,0.0492 -0.33662,0.19645 -0.252894,0.14661 0.10084,-0.06 0.20388,-0.11634 0.304236,-0.17718 0.08374,-0.0508 -0.339153,0.19602 -0.254396,0.14696 0.600545,-0.3476 0.219921,-0.12687 0.04474,-0.0252 0.04882,-0.0314 0.09851,-0.0612 0.148077,-0.0913 0.15367,-0.0901 0.30251,-0.19195 0.469492,-0.25601 0.05418,-0.0217 0.109877,-0.0391 0.168494,-0.0434 0.06142,-0.005 0.123018,-0.002 0.183709,0.009 0.06013,0.0143 0.118263,0.0362 0.175654,0.0589 0.07394,0.0332 0.145104,0.0721 0.204965,0.12765 0.07547,0.0712 0.142936,0.14982 0.206409,0.23189 0.0685,0.0794 0.133123,0.16202 0.196292,0.2457 0,0 -0.281596,0.16623 -0.281596,0.16623 z"
       inkscape:connector-curvature="0" />
    <path
       style="fill:#000000;fill-opacity:1;stroke:none;stroke-width:0.26458332;stroke-linecap:round;stroke-linejoin:round;stroke-miterlimit:4;stroke-dasharray:none;stroke-opacity:1"
       id="path825-3"
       d="m 15.148417,291.24174 c -0.05764,-0.0862 -0.12165,-0.1679 -0.189082,-0.24662 -0.06282,-0.0814 -0.131398,-0.15783 -0.207394,-0.22702 -0.05815,-0.0532 -0.128367,-0.0872 -0.199858,-0.11813 -0.05702,-0.0197 -0.113588,-0.0417 -0.173156,-0.0524 -0.05935,-0.009 -0.118182,-0.009 -0.177428,-7.4e-4 -0.05794,0.005 -0.109764,0.0299 -0.163211,0.0499 -0.03266,0.0123 -0.06447,0.0272 -0.09527,0.0436 -0.01091,0.006 -0.04297,0.0244 -0.03225,0.0183 0.263859,-0.15139 0.326899,-0.18976 0.217611,-0.12376 -0.04949,0.0294 -0.09825,0.0599 -0.147241,0.0901 -0.985389,0.56999 0.108209,-0.0628 -0.0442,0.0261 -0.869474,0.50211 -0.0044,0.002 -0.05078,0.0298 -0.282928,0.16752 -0.199687,0.12923 -0.330266,0.1876 -0.05646,0.0213 -0.109206,0.0509 -0.165363,0.0725 -0.0471,0.0247 -0.09452,0.0487 -0.14501,0.0659 -0.05265,0.0208 -0.104833,0.0427 -0.157934,0.0624 -0.06138,0.0232 -0.124147,0.0428 -0.187147,0.0613 -0.05567,0.0165 -0.113216,0.0231 -0.17098,0.0259 -0.03047,10e-4 -0.06097,10e-4 -0.09145,10e-4 0,0 0.264553,-0.19234 0.264553,-0.19234 v 0 c 0.03001,-2.1e-4 0.06004,-4.5e-4 0.09,-0.002 0.05595,-0.005 0.111352,-0.0135 0.164962,-0.0307 0.06291,-0.0196 0.125749,-0.0396 0.186936,-0.0642 0.05264,-0.0208 0.10523,-0.0417 0.157971,-0.0623 0.04909,-0.0204 0.09584,-0.0456 0.144491,-0.0669 0.05463,-0.0245 0.109457,-0.0486 0.163802,-0.0738 0.0082,-0.004 0.03252,-0.0178 0.02452,-0.0131 -0.08412,0.0492 -0.33662,0.19645 -0.252894,0.14661 0.10084,-0.06 0.20388,-0.11634 0.304236,-0.17718 0.08374,-0.0508 -0.339153,0.19602 -0.254396,0.14696 0.600545,-0.3476 0.219921,-0.12687 0.04474,-0.0252 0.04882,-0.0314 0.09851,-0.0612 0.148077,-0.0913 0.15367,-0.0901 0.30251,-0.19195 0.469492,-0.25601 0.05418,-0.0217 0.109877,-0.0391 0.168494,-0.0434 0.06142,-0.005 0.123018,-0.002 0.183709,0.009 0.06013,0.0143 0.118263,0.0362 0.175654,0.0589 0.07394,0.0332 0.145104,0.0721 0.204965,0.12765 0.07547,0.0712 0.142936,0.14982 0.206409,0.23189 0.0685,0.0794 0.133122,0.16202 0.196292,0.2457 0,0 -0.281596,0.16623 -0.281596,0.16623 z"
       inkscape:connector-curvature="0" />
    <path
       style="fill:#000000;fill-opacity:1;stroke:none;stroke-width:0.26458332;stroke-linecap:round;stroke-linejoin:round;stroke-miterlimit:4;stroke-dasharray:none;stroke-opacity:1"
       id="path821-4"
       d="m 10.170128,289.30156 c 0.08066,-0.0532 0.160323,-0.10773 0.236777,-0.16687 0.05688,-0.0408 0.110979,-0.0844 0.161716,-0.13262 0.04127,-0.0455 0.08454,-0.0886 0.131408,-0.12831 0.144391,-0.12243 0.287119,-0.18854 0.459197,-0.22587 0.06403,-0.0139 0.129529,-0.0163 0.194778,-0.0176 0.06695,-0.003 0.133111,-0.002 0.19949,0.007 0.06684,0.003 0.123593,0.0364 0.182152,0.0647 0.05797,0.03 0.112858,0.0655 0.170604,0.0959 0.04808,0.0299 0.09619,0.0584 0.147871,0.0815 0.06045,0.025 0.122062,0.0468 0.182678,0.0712 0.05076,0.0198 0.104224,0.0316 0.155587,0.0495 0.0435,0.0162 0.08926,0.022 0.135261,0.0249 0.0291,0.002 0.05818,0.004 0.08471,-0.0109 0.0063,-0.003 0.02363,-0.0161 0.01739,-0.0126 -0.08774,0.0494 -0.174671,0.1002 -0.262006,0.15031 0.04424,-0.0253 0.08198,-0.0601 0.117583,-0.0961 0.03077,-0.0345 0.0648,-0.0661 0.101512,-0.0941 0.0059,-0.004 0.01168,-0.007 0.01767,-0.0109 0.107709,-0.0623 0.209022,-0.13844 0.324826,-0.18397 0.02406,-0.009 0.04915,-0.015 0.07343,-0.0239 0.05459,-0.0168 0.111426,-0.0208 0.168091,-0.0237 0.06524,-0.002 0.130508,-0.001 0.195762,-0.001 0.06382,0.003 0.113505,0.036 0.160744,0.0756 0.04615,0.0394 0.08491,0.086 0.127262,0.12912 0.03868,0.0503 0.0835,0.0928 0.131693,0.13336 0.03202,0.0273 0.07062,0.0334 0.111078,0.0363 0.04329,0.003 0.07855,0.003 0.120455,-0.008 0.02482,-0.009 0.05202,-0.006 0.0773,-0.0109 0.01164,-0.002 0.0225,-0.008 0.03386,-0.0111 0.03167,-0.009 0.06451,-0.0106 0.09713,-0.0123 0,0 -0.263351,0.19444 -0.263351,0.19444 v 0 c -0.03172,0.003 -0.0632,0.008 -0.09372,0.0175 -0.037,0.009 -0.07543,0.0105 -0.112351,0.0203 -0.04179,0.006 -0.08439,0.003 -0.126331,-4e-4 -0.04521,-0.007 -0.08668,-0.0213 -0.121062,-0.0529 -0.04824,-0.0417 -0.09134,-0.0875 -0.132512,-0.13626 -0.0415,-0.0424 -0.07964,-0.0881 -0.125665,-0.12581 -0.04419,-0.0348 -0.08983,-0.0593 -0.147989,-0.0574 -0.06497,-2e-4 -0.130011,-5.6e-4 -0.194893,0.003 -0.05543,0.004 -0.110705,0.0115 -0.163151,0.031 -0.02421,0.008 -0.04806,0.0157 -0.07097,0.0269 -0.0077,0.004 -0.03008,0.0164 -0.02267,0.0121 0.02922,-0.017 0.360786,-0.20869 0.240701,-0.13928 -0.04107,0.0203 -0.0732,0.0548 -0.106067,0.0861 -0.03293,0.0396 -0.07179,0.0742 -0.112877,0.10515 -0.181355,0.10416 -0.240364,0.19565 -0.411821,0.18051 -0.04752,-0.005 -0.09418,-0.0146 -0.139102,-0.0314 -0.05231,-0.0161 -0.10518,-0.031 -0.156013,-0.0515 -0.06141,-0.0236 -0.122504,-0.0478 -0.183458,-0.0726 -0.05215,-0.0238 -0.100075,-0.0544 -0.149429,-0.0834 -0.05638,-0.0317 -0.111342,-0.066 -0.169298,-0.0949 -0.05633,-0.0275 -0.112234,-0.0531 -0.176193,-0.0556 -0.06527,-0.007 -0.130788,-0.005 -0.196328,-0.003 -0.06414,0.003 -0.128377,0.007 -0.190902,0.0228 -0.03181,0.008 -0.06447,0.0152 -0.09524,0.0269 -0.0096,0.004 -0.03716,0.0178 -0.02833,0.0125 0.08286,-0.0501 0.167085,-0.098 0.250628,-0.14696 -0.0083,0.005 -0.01658,0.0102 -0.02486,0.0152 -0.0497,0.0356 -0.0936,0.0788 -0.133726,0.12484 -0.04871,0.0518 -0.103214,0.0972 -0.162195,0.13713 -0.0748,0.0594 -0.152593,0.11473 -0.232694,0.16681 0,0 -0.304133,0.12013 -0.304133,0.12013 z"
       inkscape:connector-curvature="0" />
    <path
       style="fill:#000000;fill-opacity:1;stroke:none;stroke-width:0.26458332;stroke-linecap:round;stroke-linejoin:round;stroke-miterlimit:4;stroke-dasharray:none;stroke-opacity:1"
       id="path819-3"
       d="m 1.1361741,289.90183 c 0.1187938,-0.0489 0.4206135,-0.22885 -0.05598,0.043 0.073909,-0.0451 0.1435694,-0.0963 0.2096355,-0.15209 0.043348,-0.0338 0.083675,-0.0712 0.1263577,-0.10578 0.047431,-0.0313 0.088835,-0.0702 0.1309338,-0.10805 0.047259,-0.0432 0.086421,-0.094 0.1264911,-0.14364 0.025839,-0.03 0.050141,-0.0615 0.078748,-0.089 0.1261273,-0.0969 0.2810719,-0.17132 0.4147125,-0.2472 0.050862,-0.026 0.104618,-0.0466 0.1594344,-0.0625 0.081594,-0.026 0.1668617,-0.0359 0.2518828,-0.0424 0.068387,-0.005 0.1369606,-0.005 0.2054839,-0.005 0.062657,-0.002 0.1240303,0.0115 0.1846576,0.0254 0.055636,0.007 0.108628,0.0249 0.1621169,0.041 0.052226,0.0188 0.1037053,0.0353 0.1511478,0.0646 0.044945,0.0225 0.084215,0.0529 0.1248537,0.0819 0.039316,0.0297 0.078674,0.0597 0.1201737,0.0863 0.042573,0.0307 0.086563,0.0589 0.1330176,0.0834 0.055364,0.0284 0.1028571,0.0687 0.1542917,0.10314 0.053131,0.0367 0.1030682,0.0778 0.1546172,0.11673 0.038822,0.0385 0.085935,0.0653 0.1326703,0.0927 0.038843,0.0222 0.082337,0.0283 0.1261695,0.0315 0.048929,0.002 0.097935,0.002 0.1468996,0.002 0.061037,0.004 0.116664,-0.0206 0.1696937,-0.0479 0.1150122,-0.0534 0.036796,-0.0179 -0.2330784,0.13568 -0.00661,0.004 0.013145,-0.008 0.019685,-0.0115 0.012912,-0.008 0.025366,-0.0161 0.038415,-0.0235 0.099918,-0.0569 0.2001343,-0.11326 0.3002013,-0.16989 0.097158,-0.0584 0.2350381,-0.13197 -0.2315462,0.13293 -0.00499,0.003 0.00921,-0.007 0.014176,-0.01 0.2958425,-0.17199 0.1861981,-0.14053 0.3132156,-0.17513 0.031992,-0.003 0.061989,-0.009 0.092801,-0.0174 0,0 -0.2602066,0.19931 -0.2602066,0.19931 v 0 c -0.030174,0.007 -0.061837,0.008 -0.090557,0.0205 -0.105493,0.0544 -0.031592,0.0166 0.2501763,-0.14651 0.00495,-0.003 -0.0096,0.006 -0.014536,0.009 -0.1063348,0.0625 -0.2163895,0.13396 -0.3294203,0.19088 0.6472523,-0.37513 -0.054175,0.0346 -0.124382,0.0683 -0.057238,0.0241 -0.1152273,0.0415 -0.1782595,0.0366 -0.049968,1.1e-4 -0.1000961,0.001 -0.1498846,-0.004 -0.047115,-0.006 -0.092747,-0.0179 -0.1336326,-0.0432 -0.047685,-0.0278 -0.092984,-0.0588 -0.1333281,-0.0967 -0.051401,-0.0385 -0.1012552,-0.0791 -0.154156,-0.11543 -0.049799,-0.0351 -0.098537,-0.0716 -0.1529374,-0.0996 -0.047069,-0.0254 -0.091051,-0.0555 -0.1350341,-0.0858 -0.041189,-0.0281 -0.081673,-0.0572 -0.1213935,-0.0873 -0.039096,-0.0293 -0.079374,-0.0563 -0.122497,-0.0795 -0.046378,-0.0255 -0.096881,-0.0407 -0.1466443,-0.0584 -0.052872,-0.0161 -0.106268,-0.0294 -0.1606936,-0.0391 -0.059114,-0.013 -0.1192274,-0.0221 -0.1799826,-0.0198 -0.067589,2.1e-4 -0.1352507,9.8e-4 -0.2026631,0.006 -0.084323,0.008 -0.1683473,0.0206 -0.2485615,0.0491 -0.053828,0.019 -0.1068729,0.0402 -0.1573371,0.0671 0.4876059,-0.28327 0.2522913,-0.14932 0.1433524,-0.0803 -0.030369,0.0255 -0.056419,0.0544 -0.080904,0.0856 -0.044457,0.0471 -0.079903,0.10226 -0.1264815,0.1477 -0.041503,0.0382 -0.081576,0.0786 -0.1279613,0.1107 -0.046702,0.0303 -0.083427,0.0727 -0.1294138,0.10412 -0.065748,0.0578 -0.13506,0.11124 -0.2096427,0.15725 -0.1651237,0.0968 -0.3255749,0.20149 -0.5017824,0.27689 0,0 0.2568869,-0.20302 0.2568869,-0.20302 z"
       inkscape:connector-curvature="0" />
    <path
       style="fill:#000000;fill-opacity:1;stroke:none;stroke-width:0.26458332;stroke-linecap:round;stroke-linejoin:round;stroke-miterlimit:4;stroke-dasharray:none;stroke-opacity:1"
       id="path823-1"
       d="m 6.6289854,290.81588 c 0.0623,-0.0601 0.1216544,-0.12328 0.1798812,-0.18735 0.058506,-0.0645 0.119148,-0.12707 0.1824726,-0.18681 0.061691,-0.0635 0.1352544,-0.11205 0.2080588,-0.16142 0.1200195,-0.0817 0.2495658,-0.149 0.377009,-0.21778 0.03303,-0.0178 0.09096,-0.0302 0.127407,-0.04 0.08595,-0.0154 0.172101,-0.03 0.258452,-0.0432 0.06098,-0.0145 0.120042,-0.0342 0.181847,-0.0451 0.06045,-0.0183 0.123523,-0.0248 0.186237,-0.0297 0.05035,-0.005 0.101983,-6.3e-4 0.149833,0.0162 0.04683,0.0144 0.08341,0.048 0.119093,0.08 0.04453,0.0395 0.08664,0.0815 0.131974,0.12008 0.0411,0.0278 0.08567,0.0503 0.128495,0.0755 0.0487,0.0324 0.09637,0.0665 0.142976,0.1019 0.04361,0.0265 0.08876,0.05 0.131917,0.0773 0.04169,0.0195 0.08262,0.0402 0.122513,0.0633 0.03922,0.025 0.08552,0.0269 0.1289901,0.0386 0.04267,0.012 0.08677,0.016 0.1308529,0.0182 0.04387,0.002 0.08778,10e-4 0.1316752,10e-4 0.018989,6.4e-4 0.040349,-0.002 0.05816,-0.009 0.01014,-0.004 0.01882,-0.0114 0.0286,-0.0165 -0.08935,0.051 -0.1786943,0.10204 -0.2680425,0.15306 0.02961,-0.0145 0.04498,-0.0431 0.06844,-0.0644 0.1203351,-0.0785 0.2352385,-0.18057 0.3801555,-0.19364 0.02769,-0.002 0.01375,-9.2e-4 0.04181,-0.002 0,0 -0.263696,0.19387 -0.263696,0.19387 v 0 c -0.027179,0.002 -0.01375,7.9e-4 -0.040299,0.004 -0.014959,0.003 -0.021601,0.004 -0.03585,0.009 -0.0053,0.002 -0.02051,0.01 -0.01561,0.007 0.4719388,-0.27709 0.3306615,-0.19922 0.2394015,-0.1371 -0.03985,0.0152 -0.03705,0.0402 -0.06903,0.0628 -0.1411516,0.0822 -0.2353306,0.18751 -0.3886725,0.185 -0.044329,-1e-4 -0.088699,-1.1e-4 -0.1329475,-0.003 -0.04525,-0.004 -0.09004,-0.0106 -0.133907,-0.0227 -0.04669,-0.01 -0.09278,-0.0206 -0.133798,-0.0463 -0.04082,-0.0222 -0.08283,-0.0419 -0.123514,-0.0643 -0.04421,-0.0269 -0.08963,-0.0517 -0.132769,-0.0803 -0.04593,-0.0343 -0.09207,-0.0687 -0.141238,-0.0983 -0.04467,-0.0254 -0.09091,-0.049 -0.131359,-0.0809 -0.04499,-0.0391 -0.08675,-0.0817 -0.132282,-0.12027 -0.03366,-0.0288 -0.06808,-0.0569 -0.112176,-0.0675 -0.04675,-0.0105 -0.09396,-0.0131 -0.141628,-0.007 -0.06217,0.006 -0.12346,0.0167 -0.183976,0.0324 -0.061,0.0133 -0.120139,0.0341 -0.182008,0.0436 -0.08506,0.0134 -0.1707754,0.0244 -0.254384,0.0452 -0.04012,0.0123 -0.049943,0.0145 -0.088669,0.0296 -0.012465,0.005 -0.048376,0.0226 -0.036983,0.0156 0.44575,-0.27455 0.276086,-0.16266 0.1786686,-0.10292 -0.072168,0.0497 -0.1489501,0.0939 -0.2106107,0.1572 -0.063846,0.0588 -0.1245386,0.12079 -0.1836235,0.18431 -0.057355,0.0636 -0.1155213,0.1264 -0.1756799,0.18736 0,0 -0.3021552,0.12516 -0.3021552,0.12516 z"
       inkscape:connector-curvature="0" />
    <path
       style="fill:#000000;fill-opacity:1;stroke:none;stroke-width:0.26458332;stroke-linecap:round;stroke-linejoin:round;stroke-miterlimit:4;stroke-dasharray:none;stroke-opacity:1"
       id="path819-3-9"
       d="m 10.025209,293.01913 c 0.118794,-0.0489 0.420613,-0.22885 -0.05598,0.043 0.07391,-0.0451 0.1435687,-0.0963 0.2096347,-0.15209 0.04335,-0.0338 0.08367,-0.0712 0.126358,-0.10578 0.04743,-0.0313 0.08883,-0.0702 0.130934,-0.10805 0.04726,-0.0432 0.08642,-0.094 0.126491,-0.14364 0.02584,-0.03 0.05014,-0.0615 0.07875,-0.089 0.126127,-0.0969 0.281072,-0.17132 0.414713,-0.2472 0.05086,-0.026 0.104618,-0.0466 0.159434,-0.0625 0.08159,-0.026 0.166862,-0.0359 0.251883,-0.0424 0.06839,-0.005 0.13696,-0.005 0.205484,-0.005 0.06266,-0.002 0.12403,0.0115 0.184657,0.0254 0.05564,0.007 0.108628,0.0249 0.162117,0.041 0.05223,0.0188 0.103705,0.0353 0.151148,0.0646 0.04495,0.0225 0.08422,0.0529 0.124854,0.0819 0.03932,0.0297 0.07867,0.0597 0.120173,0.0863 0.04257,0.0307 0.08656,0.0589 0.133018,0.0834 0.05536,0.0284 0.102857,0.0687 0.154292,0.10314 0.05313,0.0367 0.103068,0.0778 0.154617,0.11673 0.03882,0.0385 0.08594,0.0653 0.13267,0.0927 0.03884,0.0222 0.08234,0.0283 0.12617,0.0315 0.04893,0.002 0.09793,0.002 0.146899,0.002 0.06104,0.004 0.116664,-0.0206 0.169694,-0.0479 0.115012,-0.0534 0.0368,-0.0179 -0.233078,0.13568 -0.0066,0.004 0.01315,-0.008 0.01969,-0.0115 0.01291,-0.008 0.02537,-0.0161 0.03842,-0.0235 0.09992,-0.0569 0.200134,-0.11326 0.300201,-0.16989 0.09716,-0.0584 0.235038,-0.13197 -0.231547,0.13293 -0.005,0.003 0.0092,-0.007 0.01418,-0.01 0.295843,-0.17199 0.186199,-0.14053 0.313216,-0.17513 0.03199,-0.003 0.06199,-0.009 0.0928,-0.0174 0,0 -0.260207,0.19931 -0.260207,0.19931 v 0 c -0.03017,0.007 -0.06184,0.008 -0.09056,0.0205 -0.105492,0.0544 -0.03159,0.0166 0.250177,-0.14651 0.005,-0.003 -0.0096,0.006 -0.01454,0.009 -0.106335,0.0625 -0.21639,0.13396 -0.329421,0.19088 0.647253,-0.37513 -0.05417,0.0346 -0.124382,0.0683 -0.05724,0.0241 -0.115227,0.0415 -0.178259,0.0366 -0.04997,1.1e-4 -0.100096,0.001 -0.149885,-0.004 -0.04711,-0.006 -0.09275,-0.0179 -0.133632,-0.0432 -0.04769,-0.0278 -0.09298,-0.0588 -0.133328,-0.0967 -0.0514,-0.0385 -0.101256,-0.0791 -0.154156,-0.11543 -0.0498,-0.0351 -0.09854,-0.0716 -0.152938,-0.0996 -0.04707,-0.0254 -0.09105,-0.0555 -0.135034,-0.0858 -0.04119,-0.0281 -0.08167,-0.0572 -0.121393,-0.0873 -0.0391,-0.0293 -0.07937,-0.0563 -0.122497,-0.0795 -0.04638,-0.0255 -0.09688,-0.0407 -0.146645,-0.0584 -0.05287,-0.0161 -0.106268,-0.0294 -0.160693,-0.0391 -0.05911,-0.013 -0.119228,-0.0221 -0.179983,-0.0198 -0.06759,2.1e-4 -0.135251,9.8e-4 -0.202663,0.006 -0.08432,0.008 -0.168347,0.0206 -0.248561,0.0491 -0.05383,0.019 -0.106873,0.0402 -0.157338,0.0671 0.487606,-0.28327 0.252292,-0.14932 0.143353,-0.0803 -0.03037,0.0255 -0.05642,0.0544 -0.0809,0.0856 -0.04446,0.0471 -0.0799,0.10226 -0.126482,0.1477 -0.0415,0.0382 -0.08158,0.0786 -0.127961,0.1107 -0.0467,0.0303 -0.08343,0.0727 -0.129414,0.10412 -0.06575,0.0578 -0.13506,0.11124 -0.209642,0.15725 -0.165124,0.0968 -0.3255747,0.20149 -0.5017827,0.27689 0,0 0.2568867,-0.20302 0.2568867,-0.20302 z"
       inkscape:connector-curvature="0" />
    <path
       style="fill:#000000;fill-opacity:1;stroke:none;stroke-width:0.26458332;stroke-linecap:round;stroke-linejoin:round;stroke-miterlimit:4;stroke-dasharray:none;stroke-opacity:1"
       id="path817-4"
       d="m 3.7745342,293.12044 c 0.1230349,-0.0615 0.2503172,-0.11395 0.3776597,-0.16573 0.1223635,-0.046 0.2385849,-0.10643 0.3567654,-0.16197 0.1032101,-0.0528 0.2079836,-0.10277 0.3165386,-0.14358 0.067366,-0.0245 0.1327222,-0.053 0.1950419,-0.0884 -0.085033,0.0488 -0.1697622,0.0981 -0.2550995,0.14628 -0.00812,0.005 0.015689,-0.0101 0.0234,-0.0153 0.025292,-0.0172 0.049842,-0.0358 0.0764,-0.0511 0.1019939,-0.0588 0.2044107,-0.11678 0.306616,-0.17517 0.052596,-0.0244 0.104579,-0.0503 0.1577494,-0.0735 0.045164,-0.0242 0.093285,-0.0424 0.1429758,-0.0547 0.058708,-0.0122 0.1191387,-0.015 0.1787445,-0.01 0.070941,0.003 0.1325894,0.0378 0.1937626,0.0705 0.066511,0.0365 0.1265735,0.083 0.1894065,0.12506 0.05511,0.0358 0.1074018,0.0756 0.1584485,0.11701 0.052486,0.042 0.1031909,0.0866 0.1570564,0.1268 0.040201,0.0351 0.089291,0.0553 0.1352909,0.0806 0.033668,0.0162 0.068149,0.0304 0.1017681,0.0467 0.043802,0.0216 0.088776,0.0402 0.1335656,0.0597 0.045599,0.0257 0.093437,0.0464 0.1408221,0.0683 0.043611,0.0193 0.087631,0.0372 0.1323779,0.0538 0.034231,0.0243 0.075046,0.0298 0.1136682,0.0426 0.040759,0.0135 0.083483,0.0172 0.1260626,0.0195 0.029166,0.001 0.058362,0.001 0.087547,0.001 0,0 -0.2647926,0.19204 -0.2647926,0.19204 v 0 c -0.029612,-4e-4 -0.059247,-8.2e-4 -0.088789,-0.003 -0.044243,-0.004 -0.08805,-0.0111 -0.1303163,-0.0253 -0.040069,-0.0107 -0.078104,-0.0249 -0.1146265,-0.0448 -0.044846,-0.0176 -0.089541,-0.0354 -0.133337,-0.0555 -0.047501,-0.0211 -0.093262,-0.0454 -0.1400728,-0.0679 -0.045583,-0.0188 -0.090096,-0.0397 -0.1351775,-0.0597 -0.034759,-0.0149 -0.068563,-0.0319 -0.1024273,-0.0487 -0.047945,-0.0249 -0.095161,-0.051 -0.1368678,-0.0859 -0.052961,-0.0418 -0.1047694,-0.0852 -0.1572956,-0.12753 -0.050708,-0.0405 -0.1028234,-0.0792 -0.1569209,-0.11505 -0.060808,-0.0428 -0.1208961,-0.0871 -0.1867183,-0.12204 -0.059192,-0.0299 -0.118676,-0.0582 -0.1865715,-0.0587 -0.058284,-10e-4 -0.1169408,0.003 -0.1732177,0.019 -0.048253,0.0156 -0.094629,0.036 -0.1400437,0.0585 -0.052121,0.0246 -0.104964,0.0476 -0.1560789,0.0743 0.083666,-0.0488 0.1671174,-0.0981 0.2509985,-0.14651 0.00877,-0.005 -0.017027,0.011 -0.025657,0.0163 -0.033695,0.0207 -0.018952,0.01 -0.050998,0.0331 -0.1365843,0.0999 0.2428839,-0.13696 -0.3256346,0.19309 -0.063163,0.032 -0.1282541,0.059 -0.1948225,0.0832 -0.1070129,0.0429 -0.2110315,0.0923 -0.3139138,0.14434 -0.1176534,0.0553 -0.2339948,0.11387 -0.3559964,0.15927 -0.1291138,0.0531 -0.2581661,0.10692 -0.3817747,0.1721 0,0 0.2544828,-0.20356 0.2544828,-0.20356 z"
       inkscape:connector-curvature="0" />
    <path
       style="fill:#000000;fill-opacity:1;stroke:none;stroke-width:0.26458332;stroke-linecap:round;stroke-linejoin:round;stroke-miterlimit:4;stroke-dasharray:none;stroke-opacity:1"
       id="path821-4-1"
       d="m 0.71753812,294.8123 c 0.08066,-0.0532 0.160323,-0.10773 0.236777,-0.16687 0.05688,-0.0408 0.11097898,-0.0844 0.16171598,-0.13262 0.04127,-0.0455 0.08454,-0.0886 0.131408,-0.12831 0.144391,-0.12243 0.287119,-0.18854 0.459197,-0.22587 0.06403,-0.0139 0.129529,-0.0163 0.194778,-0.0176 0.06695,-0.003 0.133111,-0.002 0.19949,0.007 0.06684,0.003 0.123593,0.0364 0.182152,0.0647 0.05797,0.03 0.112858,0.0655 0.170604,0.0959 0.04808,0.0299 0.09619,0.0584 0.147871,0.0815 0.06045,0.025 0.122062,0.0468 0.182678,0.0712 0.05076,0.0198 0.104224,0.0316 0.155587,0.0495 0.0435,0.0162 0.08926,0.022 0.135261,0.0249 0.0291,0.002 0.05818,0.004 0.08471,-0.0109 0.0063,-0.003 0.02363,-0.0161 0.01739,-0.0126 -0.08774,0.0494 -0.174671,0.1002 -0.262006,0.15031 0.04424,-0.0253 0.08198,-0.0601 0.117583,-0.0961 0.03077,-0.0345 0.0648,-0.0661 0.101512,-0.0941 0.0059,-0.004 0.01168,-0.007 0.01767,-0.0109 0.107709,-0.0623 0.209022,-0.13844 0.3248261,-0.18397 0.024059,-0.009 0.04915,-0.015 0.07343,-0.0239 0.05459,-0.0168 0.1114261,-0.0208 0.1680911,-0.0237 0.06524,-0.002 0.1305082,-0.001 0.1957621,-0.001 0.06382,0.003 0.1135049,0.036 0.1607439,0.0756 0.04615,0.0394 0.08491,0.086 0.1272619,0.12912 0.03868,0.0503 0.0835,0.0928 0.1316932,0.13336 0.03202,0.0273 0.07062,0.0334 0.1110779,0.0363 0.04329,0.003 0.07855,0.003 0.120455,-0.008 0.024821,-0.009 0.05202,-0.006 0.0773,-0.0109 0.011639,-0.002 0.0225,-0.008 0.03386,-0.0111 0.03167,-0.009 0.06451,-0.0106 0.09713,-0.0123 0,0 -0.263351,0.19444 -0.263351,0.19444 v 0 c -0.03172,0.003 -0.0632,0.008 -0.09372,0.0175 -0.037,0.009 -0.07543,0.0105 -0.1123508,0.0203 -0.04179,0.006 -0.08439,0.003 -0.1263312,-4e-4 -0.04521,-0.007 -0.08668,-0.0213 -0.1210619,-0.0529 -0.04824,-0.0417 -0.09134,-0.0875 -0.1325121,-0.13626 -0.0415,-0.0424 -0.07964,-0.0881 -0.1256649,-0.12581 -0.04419,-0.0348 -0.08983,-0.0593 -0.1479891,-0.0574 -0.06497,-2e-4 -0.130011,-5.6e-4 -0.1948929,0.003 -0.05543,0.004 -0.1107051,0.0115 -0.1631511,0.031 -0.02421,0.008 -0.04806,0.0157 -0.07097,0.0269 -0.0077,0.004 -0.03008,0.0164 -0.02267,0.0121 0.02922,-0.017 0.3607861,-0.20869 0.240701,-0.13928 -0.04107,0.0203 -0.0732,0.0548 -0.106067,0.0861 -0.03293,0.0396 -0.07179,0.0742 -0.112877,0.10515 -0.181355,0.10416 -0.240364,0.19565 -0.411821,0.18051 -0.04752,-0.005 -0.09418,-0.0146 -0.139102,-0.0314 -0.05231,-0.0161 -0.10518,-0.031 -0.156013,-0.0515 -0.06141,-0.0236 -0.122504,-0.0478 -0.183458,-0.0726 -0.05215,-0.0238 -0.100075,-0.0544 -0.149429,-0.0834 -0.05638,-0.0317 -0.111342,-0.066 -0.169298,-0.0949 -0.05633,-0.0275 -0.112234,-0.0531 -0.176193,-0.0556 -0.06527,-0.007 -0.130788,-0.005 -0.196328,-0.003 -0.06414,0.003 -0.128377,0.007 -0.190902,0.0228 -0.03181,0.008 -0.06447,0.0152 -0.09524,0.0269 -0.0096,0.004 -0.03716,0.0178 -0.02833,0.0125 0.08286,-0.0501 0.167085,-0.098 0.250628,-0.14696 -0.0083,0.005 -0.01658,0.0102 -0.02486,0.0152 -0.0497,0.0356 -0.0936,0.0788 -0.133726,0.12484 -0.04871,0.0518 -0.103214,0.0972 -0.162195,0.13713 -0.0748,0.0594 -0.152593,0.11473 -0.232694,0.16681 0,0 -0.30413297,0.12013 -0.30413297,0.12013 z"
       inkscape:connector-curvature="0" />
    <path
       style="fill:#000000;fill-opacity:1;stroke:none;stroke-width:0.26458332;stroke-linecap:round;stroke-linejoin:round;stroke-miterlimit:4;stroke-dasharray:none;stroke-opacity:1"
       id="path965"
       d="m 8.4687758,294.75749 c 0.2409942,-0.0703 0.4743159,-0.16522 0.7065164,-0.26011 0.2434354,-0.1068 0.4905118,-0.20381 0.7435942,-0.28512 0.1517126,-0.0403 0.3006166,-0.0906 0.4532366,-0.12748 0.07855,-0.0143 0.157596,-0.025 0.236523,-0.0372 0.05847,-0.008 0.117733,-0.009 0.176688,-0.01 0.04925,0.001 0.09916,-0.005 0.147831,0.004 0.04866,0.006 0.08992,0.0296 0.13045,0.0553 0.037,0.0317 0.06518,0.0719 0.09465,0.11031 0.03146,0.0331 0.06464,0.0643 0.0985,0.0949 0.03804,0.0251 0.06602,0.0611 0.09766,0.0932 0.02703,0.0308 0.05273,0.0625 0.08303,0.0902 0.03446,0.032 0.07488,0.0571 0.116485,0.0787 0.04033,0.0189 0.08452,0.0224 0.128332,0.0244 0.0069,-0.001 0.01395,-0.002 0.02068,-0.004 0.01433,-0.004 0.0284,-0.009 0.04179,-0.016 0.0064,-0.003 0.02428,-0.0151 0.01806,-0.0116 -0.240151,0.13632 -0.346278,0.20223 -0.236665,0.13451 0.04461,-0.0326 0.08749,-0.0673 0.132831,-0.099 0.03121,-0.0208 0.05916,-0.0456 0.08775,-0.0697 0,0 0.303001,-0.12569 0.303001,-0.12569 v 0 c -0.02444,0.0292 -0.05649,0.0525 -0.08719,0.0747 -0.04323,0.0346 -0.09213,0.0621 -0.132525,0.10056 -0.113562,0.0834 -0.26063,0.20197 -0.413701,0.20618 -0.04722,-0.004 -0.09389,-0.0128 -0.135915,-0.0362 -0.043,-0.0245 -0.08518,-0.051 -0.121238,-0.0852 -0.03037,-0.0283 -0.05617,-0.0606 -0.08381,-0.0915 -0.03107,-0.0317 -0.05938,-0.0662 -0.0963,-0.0917 -0.03547,-0.0317 -0.06962,-0.0648 -0.101586,-0.1 -0.02736,-0.0352 -0.05272,-0.0735 -0.08892,-0.10037 -0.03741,-0.0234 -0.07769,-0.0395 -0.122153,-0.0433 -0.0481,-0.003 -0.09633,-7.4e-4 -0.144482,-6.4e-4 -0.05812,10e-4 -0.116345,0.003 -0.173803,0.013 -0.07725,0.0118 -0.155188,0.0196 -0.231503,0.0369 -0.1495011,0.0368 -0.2964438,0.0833 -0.4448941,0.12398 -0.2497648,0.0808 -0.4934966,0.17722 -0.7345934,0.28099 -0.2398686,0.0971 -0.4797851,0.19717 -0.7284858,0.26957 0,0 0.2601513,-0.19697 0.2601513,-0.19697 z"
       inkscape:connector-curvature="0" />
    <path
       style="fill:#000000;fill-opacity:1;stroke:none;stroke-width:0.26458332;stroke-linecap:round;stroke-linejoin:round;stroke-miterlimit:4;stroke-dasharray:none;stroke-opacity:1"
       id="path967"
       d="m 13.00352,295.61499 c 0.06363,-0.0763 0.118583,-0.15923 0.168235,-0.24517 0.05264,-0.0912 0.097,-0.18637 0.155713,-0.27392 0.0497,-0.0721 0.118502,-0.1237 0.190382,-0.1716 0.157611,-0.0919 0.308972,-0.21191 0.488977,-0.25604 0.05322,-0.0185 0.108263,-0.0287 0.16423,-0.0334 0.04753,-0.006 0.08674,0.0137 0.124272,0.0404 0.04377,0.0385 0.08505,0.0801 0.127011,0.12076 0.04887,0.0481 0.09548,0.0983 0.144138,0.14671 0.0637,0.0633 0.12778,0.12627 0.191886,0.18919 0.04388,0.0368 0.083,0.0788 0.126962,0.1155 0.01505,0.0191 0.03644,0.0298 0.05521,0.0444 0,0 -0.277234,0.17528 -0.277234,0.17528 v 0 c -0.01972,-0.0143 -0.03946,-0.0285 -0.05576,-0.0469 -0.04264,-0.0387 -0.08271,-0.0801 -0.125247,-0.11901 -0.06345,-0.0635 -0.127271,-0.12673 -0.192075,-0.1889 -0.04927,-0.0478 -0.09609,-0.0979 -0.145331,-0.14565 -0.04069,-0.0392 -0.08009,-0.0804 -0.124778,-0.11497 -0.03518,-0.0211 -0.07035,-0.0291 -0.111405,-0.022 -0.05435,0.007 -0.107255,0.0204 -0.159594,0.0366 -0.03474,0.0107 -0.06724,0.023 -0.09972,0.0396 -0.01187,0.006 -0.04669,0.0256 -0.03522,0.0189 0.341543,-0.20134 0.307904,-0.18112 0.205216,-0.11822 -0.07126,0.0463 -0.142946,0.0918 -0.195483,0.16037 -0.06187,0.0857 -0.107788,0.17983 -0.159044,0.27199 -0.04726,0.0867 -0.10127,0.16878 -0.160058,0.24809 0,0 -0.301278,0.12801 -0.301278,0.12801 z"
       inkscape:connector-curvature="0" />
    <path
       style="fill:#000000;fill-opacity:1;stroke:none;stroke-width:0.26458332;stroke-linecap:round;stroke-linejoin:round;stroke-miterlimit:4;stroke-dasharray:none;stroke-opacity:1"
       id="path969"
       d="m 4.8911332,296.14405 c 0.064766,-0.0585 0.1304938,-0.11599 0.1927177,-0.1772 0.092834,-0.093 0.1801768,-0.19093 0.2661997,-0.29017 0.060053,-0.0704 0.1165773,-0.14376 0.1851459,-0.20624 0.04088,-0.0341 0.086842,-0.0614 0.132973,-0.0876 0.322385,-0.18337 0.2010942,-0.13757 0.3526504,-0.19168 0.072394,-0.0243 0.1468059,-0.0381 0.2225643,-0.0459 0.06252,-0.005 0.1252387,-0.006 0.1879095,-0.006 0.056418,0.002 0.1132922,-0.004 0.1692767,0.004 0.051159,0.005 0.094541,0.032 0.1346705,0.0622 0.033448,0.0288 0.054564,0.0672 0.077492,0.10403 0.020016,0.0255 0.044477,0.006 0.067018,-0.007 0.045935,-0.0218 0.075519,-0.0272 0.1211387,-0.003 0.042006,0.03 0.081543,0.0638 0.118042,0.10033 0.030504,0.0338 0.06109,0.0678 0.089941,0.10305 0.021751,0.0265 0.041779,0.0435 0.075498,0.0507 0.039213,0.004 0.079681,0.009 0.1185683,0.001 0.04479,-0.006 0.087399,-0.019 0.131236,-0.0288 0,0 -0.2599542,0.19836 -0.2599542,0.19836 v 0 c -0.044076,0.0112 -0.088477,0.0207 -0.1337601,0.0257 -0.042528,0.001 -0.085814,6e-5 -0.1269804,-0.0117 -0.035861,-0.014 -0.061715,-0.037 -0.085624,-0.0669 -0.028204,-0.0343 -0.056564,-0.0686 -0.087312,-0.10064 -0.033991,-0.0331 -0.069871,-0.0665 -0.1118751,-0.0891 -0.037876,-0.01 -0.071778,0.009 -0.1064771,0.0235 -0.042612,0.0113 -0.065851,0.006 -0.092882,-0.0308 -0.02014,-0.0334 -0.038639,-0.0686 -0.069945,-0.0934 -0.038082,-0.026 -0.077425,-0.0465 -0.1246666,-0.0483 -0.055635,-0.003 -0.1114126,-0.001 -0.1671127,-0.002 -0.061674,5.3e-4 -0.1234858,9e-4 -0.1848575,0.008 -0.073972,0.01 -0.1467937,0.0256 -0.2167017,0.0521 -0.1218501,0.0533 -0.050507,0.0238 0.2044824,-0.12495 0.011845,-0.007 -0.023535,0.0141 -0.035404,0.021 -0.033526,0.0194 -0.067853,0.0376 -0.098853,0.0611 -0.073317,0.0587 -0.1314098,0.13212 -0.1914721,0.20388 -0.086813,0.0976 -0.1711198,0.19739 -0.2627119,0.29071 -0.059697,0.0625 -0.1267365,0.11702 -0.1873861,0.17847 0,0 -0.3035488,0.12252 -0.3035488,0.12252 z"
       inkscape:connector-curvature="0" />
  </g>
</svg>
