<?xml version="1.0" encoding="UTF-8" standalone="no"?>
<!-- Created with Inkscape (http://www.inkscape.org/) -->

<svg
   xmlns:dc="http://purl.org/dc/elements/1.1/"
   xmlns:cc="http://creativecommons.org/ns#"
   xmlns:rdf="http://www.w3.org/1999/02/22-rdf-syntax-ns#"
   xmlns:svg="http://www.w3.org/2000/svg"
   xmlns="http://www.w3.org/2000/svg"
   xmlns:sodipodi="http://sodipodi.sourceforge.net/DTD/sodipodi-0.dtd"
   xmlns:inkscape="http://www.inkscape.org/namespaces/inkscape"
   width="60"
   height="60"
   viewBox="0 0 15.875 15.875"
   version="1.1"
   id="svg8"
   inkscape:version="0.92.2 (5c3e80d, 2017-08-06)"
   sodipodi:docname="harvester.svg"
   inkscape:export-filename="C:\xampp\htdocs\studies\bam\images\farm_world\harvester.png"
   inkscape:export-xdpi="96"
   inkscape:export-ydpi="96">
  <defs
     id="defs2" />
  <sodipodi:namedview
     id="base"
     pagecolor="#ffffff"
     bordercolor="#666666"
     borderopacity="1.0"
     inkscape:pageopacity="0.0"
     inkscape:pageshadow="2"
     inkscape:zoom="7.9195959"
     inkscape:cx="-1.2077807"
     inkscape:cy="32.63593"
     inkscape:document-units="mm"
     inkscape:current-layer="layer1"
     showgrid="true"
     units="px"
     inkscape:window-width="1920"
     inkscape:window-height="1027"
     inkscape:window-x="-8"
     inkscape:window-y="-8"
     inkscape:window-maximized="1">
    <inkscape:grid
       type="xygrid"
       id="grid815" />
  </sodipodi:namedview>
  <metadata
     id="metadata5">
    <rdf:RDF>
      <cc:Work
         rdf:about="">
        <dc:format>image/svg+xml</dc:format>
        <dc:type
           rdf:resource="http://purl.org/dc/dcmitype/StillImage" />
        <dc:title />
      </cc:Work>
    </rdf:RDF>
  </metadata>
  <g
     inkscape:label="Layer 1"
     inkscape:groupmode="layer"
     id="layer1"
     transform="translate(0,-281.12498)">
    <path
       style="fill:#ffd250;fill-opacity:1;stroke:none;stroke-width:0.26458332;stroke-linecap:round;stroke-linejoin:round;stroke-miterlimit:4;stroke-dasharray:none;stroke-opacity:1"
       id="path851-9"
       sodipodi:type="arc"
       sodipodi:cx="4.3656249"
       sodipodi:cy="290.38544"
       sodipodi:rx="1.7197917"
       sodipodi:ry="1.5875"
       sodipodi:start="3.1416101"
       sodipodi:end="3.1315221"
       sodipodi:open="true"
       d="m 2.6458333,290.38541 a 1.7197917,1.5875 0 0 1 1.7154843,-1.58747 1.7197917,1.5875 0 0 1 1.7240772,1.57952 1.7197917,1.5875 0 0 1 -1.7067881,1.59543 1.7197917,1.5875 0 0 1 -1.7326862,-1.57147" />
    <path
       style="fill:#ffd250;fill-opacity:1;stroke:none;stroke-width:0.26458332;stroke-linecap:round;stroke-linejoin:round;stroke-miterlimit:4;stroke-dasharray:none;stroke-opacity:1"
       id="path851"
       sodipodi:type="arc"
       sodipodi:cx="-14.155209"
       sodipodi:cy="292.76663"
       sodipodi:rx="1.7197917"
       sodipodi:ry="1.5875"
       sodipodi:start="3.1416101"
       sodipodi:end="3.1315221"
       sodipodi:open="true"
       d="m -15.875,292.7666 a 1.7197917,1.5875 0 0 1 1.715484,-1.58746 1.7197917,1.5875 0 0 1 1.724077,1.57951 1.7197917,1.5875 0 0 1 -1.706788,1.59544 1.7197917,1.5875 0 0 1 -1.732686,-1.57147" />
    <path
       style="fill:#00aa50;fill-opacity:1;stroke:#00aa50;stroke-width:0.5291667;stroke-linecap:round;stroke-linejoin:round;stroke-miterlimit:4;stroke-dasharray:none;stroke-opacity:1"
       d="m -16.404167,291.17915 c 0,3.43958 0,3.43958 0,3.43958 h 5.291667 z"
       id="path827"
       inkscape:connector-curvature="0" />
    <rect
       style="fill:#00aa50;fill-opacity:1;stroke:none;stroke-width:0.26458332;stroke-linecap:round;stroke-linejoin:round;stroke-miterlimit:4;stroke-dasharray:none;stroke-opacity:1"
       id="rect829"
       width="0.52916664"
       height="1.3229166"
       x="-11.641667"
       y="288.26871"
       rx="0.55271459"
       ry="0.26458979" />
    <rect
       style="fill:#00aa50;fill-opacity:1;stroke:none;stroke-width:0.26458332;stroke-linecap:round;stroke-linejoin:round;stroke-miterlimit:4;stroke-dasharray:none;stroke-opacity:1"
       id="rect831"
       width="5.5562496"
       height="0.52916664"
       x="-16.668751"
       y="289.06247"
       rx="0.26458356"
       ry="0.26458862" />
    <rect
       style="fill:#00aa50;fill-opacity:1;stroke:none;stroke-width:0.26458332;stroke-linecap:round;stroke-linejoin:round;stroke-miterlimit:4;stroke-dasharray:none;stroke-opacity:1"
       id="rect833"
       width="0.52916664"
       height="5.8208332"
       x="-16.668751"
       y="289.06247"
       rx="0.26458332"
       ry="0.26458862" />
    <rect
       style="fill:#00aa50;fill-opacity:1;stroke:none;stroke-width:0.52916664;stroke-linecap:round;stroke-linejoin:round;stroke-miterlimit:4;stroke-dasharray:none;stroke-opacity:1"
       id="rect835"
       width="3.96875"
       height="0.52916664"
       x="-11.641667"
       y="289.06247"
       rx="0.26458332"
       ry="0.26458862" />
    <rect
       style="fill:#00aa50;fill-opacity:1;stroke:none;stroke-width:0.52916664;stroke-linecap:round;stroke-linejoin:round;stroke-miterlimit:4;stroke-dasharray:none;stroke-opacity:1"
       id="rect837"
       width="0.52916664"
       height="2.9104166"
       x="-8.2020836"
       y="289.06247"
       rx="0.26458332"
       ry="0.26458862" />
    <path
       style="fill:none;fill-opacity:1;stroke:#000000;stroke-width:0.26458332;stroke-linecap:round;stroke-linejoin:round;stroke-miterlimit:4;stroke-dasharray:none;stroke-opacity:1"
       id="path841"
       sodipodi:type="arc"
       sodipodi:cx="-7.937501"
       sodipodi:cy="291.70828"
       sodipodi:rx="1.0583333"
       sodipodi:ry="1.0583333"
       sodipodi:start="3.1416101"
       sodipodi:end="3.1315221"
       sodipodi:open="true"
       d="m -8.9958342,291.70826 a 1.0583333,1.0583333 0 0 1 1.0556826,-1.05831 1.0583333,1.0583333 0 0 1 1.0609706,1.05301 1.0583333,1.0583333 0 0 1 -1.0503311,1.06363 1.0583333,1.0583333 0 0 1 -1.0662685,-1.04765" />
    <path
       style="fill:none;stroke:#000000;stroke-width:0.26458332;stroke-linecap:round;stroke-linejoin:miter;stroke-miterlimit:4;stroke-dasharray:none;stroke-opacity:1"
       d="m -7.9375007,289.85623 c 0,3.70417 0,3.70417 0,3.70417"
       id="path843"
       inkscape:connector-curvature="0" />
    <path
       style="fill:none;stroke:#000000;stroke-width:0.26458332px;stroke-linecap:round;stroke-linejoin:miter;stroke-opacity:1"
       d="m -9.7895838,291.70832 c 3.7041671,0 3.7041671,0 3.7041671,0"
       id="path845"
       inkscape:connector-curvature="0" />
    <path
       style="fill:none;stroke:#000000;stroke-width:0.26458332px;stroke-linecap:round;stroke-linejoin:miter;stroke-opacity:1"
       d="m -9.2604167,290.3854 c 2.645833,2.64583 2.645833,2.64583 2.645833,2.64583"
       id="path847"
       inkscape:connector-curvature="0" />
    <path
       style="fill:none;stroke:#000000;stroke-width:0.26458332px;stroke-linecap:round;stroke-linejoin:miter;stroke-opacity:1"
       d="m -6.6145837,290.3854 c -2.645833,2.64583 -2.645833,2.64583 -2.645833,2.64583"
       id="path849"
       inkscape:connector-curvature="0" />
    <path
       style="fill:none;fill-opacity:1;stroke:#000000;stroke-width:0.37482625;stroke-linecap:round;stroke-linejoin:round;stroke-miterlimit:4;stroke-dasharray:none;stroke-opacity:1"
       id="path841-4"
       sodipodi:type="arc"
       sodipodi:cx="12.082639"
       sodipodi:cy="291.70834"
       sodipodi:rx="1.4993056"
       sodipodi:ry="1.4993044"
       sodipodi:start="3.1416101"
       sodipodi:end="3.1315221"
       sodipodi:open="true"
       d="m 10.583333,291.70832 a 1.4993056,1.4993044 0 0 1 1.495551,-1.49928 1.4993056,1.4993044 0 0 1 1.503041,1.49177 1.4993056,1.4993044 0 0 1 -1.487969,1.5068 1.4993056,1.4993044 0 0 1 -1.510547,-1.48417" />
    <path
       style="fill:none;stroke:#000000;stroke-width:0.37482625;stroke-linecap:round;stroke-linejoin:miter;stroke-miterlimit:4;stroke-dasharray:none;stroke-opacity:1"
       d="m 12.082639,289.08462 c 0,5.24757 0,5.24757 0,5.24757"
       id="path843-5"
       inkscape:connector-curvature="0" />
    <path
       style="fill:none;stroke:#000000;stroke-width:0.37482625px;stroke-linecap:round;stroke-linejoin:miter;stroke-opacity:1"
       d="m 9.458855,291.70841 c 5.24757,0 5.24757,0 5.24757,0"
       id="path845-6"
       inkscape:connector-curvature="0" />
    <path
       style="fill:none;stroke:#000000;stroke-width:0.37482625px;stroke-linecap:round;stroke-linejoin:miter;stroke-opacity:1"
       d="m 10.208508,289.83428 c 3.748264,3.74825 3.748264,3.74825 3.748264,3.74825"
       id="path847-7"
       inkscape:connector-curvature="0" />
    <path
       style="fill:none;stroke:#000000;stroke-width:0.37482625px;stroke-linecap:round;stroke-linejoin:miter;stroke-opacity:1"
       d="m 13.956772,289.83428 c -3.748264,3.74825 -3.748264,3.74825 -3.748264,3.74825"
       id="path849-6"
       inkscape:connector-curvature="0" />
    <path
       style="fill:#00aa50;fill-opacity:1;stroke:#00aa50;stroke-width:0.26458332;stroke-linecap:round;stroke-linejoin:round;stroke-miterlimit:4;stroke-dasharray:none;stroke-opacity:1"
       d="m 1.3229167,290.38539 c 1.3229167,5.29167 1.3229167,5.29167 1.3229167,5.29167 3.96875,0 3.96875,0 3.96875,0 1.3229167,-5.29167 1.3229167,-5.29167 1.3229167,-5.29167"
       id="path861"
       inkscape:connector-curvature="0" />
    <path
       style="fill:none;stroke:#00aa50;stroke-width:0.26458332px;stroke-linecap:round;stroke-linejoin:round;stroke-opacity:1"
       d="m 1.3229167,290.38539 c 6.6145833,0 6.6145833,0 6.6145833,0"
       id="path863"
       inkscape:connector-curvature="0" />
    <path
       style="fill:#00aa50;fill-opacity:1;stroke:#00aa50;stroke-width:0.26458332px;stroke-linecap:butt;stroke-linejoin:miter;stroke-opacity:1"
       d="m 6.6145833,293.03123 c 5.2916667,2.64583 5.2916667,2.64583 5.2916667,2.64583 -5.2916666,0 -5.2916666,0 -5.2916666,0"
       id="path899"
       inkscape:connector-curvature="0" />
    <path
       style="fill:none;fill-opacity:1;stroke:#00aa50;stroke-width:0.26458332;stroke-linecap:round;stroke-linejoin:round;stroke-miterlimit:4;stroke-dasharray:none;stroke-opacity:1"
       d="m 6.6145833,295.67706 c 0,-2.64583 0,-2.64583 0,-2.64583"
       id="path901"
       inkscape:connector-curvature="0" />
    <path
       style="fill:none;stroke:#00aa50;stroke-width:0.79374999;stroke-linecap:round;stroke-linejoin:miter;stroke-miterlimit:4;stroke-dasharray:none;stroke-opacity:1"
       d="m 7.9375,294.35414 c 3.96875,-2.64583 3.96875,-2.64583 3.96875,-2.64583"
       id="path903"
       inkscape:connector-curvature="0" />
    <path
       style="fill:none;stroke:#00aa50;stroke-width:0.79375;stroke-linecap:round;stroke-linejoin:miter;stroke-opacity:1;stroke-miterlimit:4;stroke-dasharray:none"
       d="m 7.9374999,290.3854 c 0,-1.32292 0,-1.32292 0,-1.32292"
       id="path4594"
       inkscape:connector-curvature="0" />
  </g>
</svg>
