<?xml version="1.0" encoding="UTF-8" standalone="no"?>
<!-- Created with Inkscape (http://www.inkscape.org/) -->

<svg
   xmlns:dc="http://purl.org/dc/elements/1.1/"
   xmlns:cc="http://creativecommons.org/ns#"
   xmlns:rdf="http://www.w3.org/1999/02/22-rdf-syntax-ns#"
   xmlns:svg="http://www.w3.org/2000/svg"
   xmlns="http://www.w3.org/2000/svg"
   xmlns:sodipodi="http://sodipodi.sourceforge.net/DTD/sodipodi-0.dtd"
   xmlns:inkscape="http://www.inkscape.org/namespaces/inkscape"
   width="60"
   height="60"
   viewBox="0 0 15.875 15.875"
   version="1.1"
   id="svg8"
   inkscape:version="0.92.2 (5c3e80d, 2017-08-06)"
   sodipodi:docname="sprinkler.svg"
   inkscape:export-filename="C:\xampp\htdocs\studies\bam\images\farming\sprinkler.png"
   inkscape:export-xdpi="96"
   inkscape:export-ydpi="96">
  <defs
     id="defs2" />
  <sodipodi:namedview
     id="base"
     pagecolor="#ffffff"
     bordercolor="#666666"
     borderopacity="1.0"
     inkscape:pageopacity="0.0"
     inkscape:pageshadow="2"
     inkscape:zoom="7.919596"
     inkscape:cx="32.257524"
     inkscape:cy="33.392929"
     inkscape:document-units="mm"
     inkscape:current-layer="layer1"
     showgrid="true"
     units="px"
     inkscape:window-width="1920"
     inkscape:window-height="1027"
     inkscape:window-x="-8"
     inkscape:window-y="-8"
     inkscape:window-maximized="1">
    <inkscape:grid
       type="xygrid"
       id="grid815" />
  </sodipodi:namedview>
  <metadata
     id="metadata5">
    <rdf:RDF>
      <cc:Work
         rdf:about="">
        <dc:format>image/svg+xml</dc:format>
        <dc:type
           rdf:resource="http://purl.org/dc/dcmitype/StillImage" />
        <dc:title />
      </cc:Work>
    </rdf:RDF>
  </metadata>
  <g
     inkscape:label="Layer 1"
     inkscape:groupmode="layer"
     id="layer1"
     transform="translate(0,-281.12497)">
    <path
       style="fill:#00c8ff;fill-opacity:1;stroke:none;stroke-width:0.26467258;stroke-linecap:round;stroke-miterlimit:4;stroke-dasharray:none;stroke-opacity:1"
       id="path821"
       sodipodi:type="arc"
       sodipodi:cx="7.9375033"
       sodipodi:cy="288.53333"
       sodipodi:rx="1.8520799"
       sodipodi:ry="1.9857181"
       sodipodi:start="6.2831663"
       sodipodi:end="3.1315198"
       sodipodi:open="true"
       d="m 9.7895832,288.53329 a 1.8520799,1.9857181 0 0 1 -1.8427344,1.98573 1.8520799,1.9857181 0 0 1 -1.8613314,-1.96569" />
    <path
       style="fill:#00c8ff;fill-opacity:1;stroke:none;stroke-width:0.26458332;stroke-linecap:round;stroke-miterlimit:4;stroke-dasharray:none;stroke-opacity:1"
       id="path823"
       sodipodi:type="arc"
       sodipodi:cx="5.6886425"
       sodipodi:cy="290.40543"
       sodipodi:rx="0.39687499"
       sodipodi:ry="0.39687499"
       sodipodi:start="3.1416112"
       sodipodi:end="3.1315221"
       sodipodi:open="true"
       d="m 5.2917675,290.40542 a 0.39687499,0.39687499 0 0 1 0.3958813,-0.39687 0.39687499,0.39687499 0 0 1 0.3978637,0.39488 0.39687499,0.39687499 0 0 1 -0.3938743,0.39886 0.39687499,0.39687499 0 0 1 -0.3998506,-0.39287" />
    <path
       style="fill:#00c8ff;fill-opacity:1;stroke:none;stroke-width:0.26458332;stroke-linecap:round;stroke-miterlimit:4;stroke-dasharray:none;stroke-opacity:1"
       id="path823-9"
       sodipodi:type="arc"
       sodipodi:cx="4.8948927"
       sodipodi:cy="291.46378"
       sodipodi:rx="0.39687499"
       sodipodi:ry="0.39687499"
       sodipodi:start="3.1416112"
       sodipodi:end="3.1315221"
       sodipodi:open="true"
       d="m 4.4980177,291.46377 a 0.39687499,0.39687499 0 0 1 0.3958813,-0.39687 0.39687499,0.39687499 0 0 1 0.3978637,0.39488 0.39687499,0.39687499 0 0 1 -0.3938743,0.39886 0.39687499,0.39687499 0 0 1 -0.3998506,-0.39287" />
    <path
       style="fill:#00c8ff;fill-opacity:1;stroke:none;stroke-width:0.26458332;stroke-linecap:round;stroke-miterlimit:4;stroke-dasharray:none;stroke-opacity:1"
       id="path823-8"
       sodipodi:type="arc"
       sodipodi:cx="4.365726"
       sodipodi:cy="292.78668"
       sodipodi:rx="0.39687499"
       sodipodi:ry="0.39687499"
       sodipodi:start="3.1416112"
       sodipodi:end="3.1315221"
       sodipodi:open="true"
       d="m 3.968851,292.78667 a 0.39687499,0.39687499 0 0 1 0.3958813,-0.39686 0.39687499,0.39687499 0 0 1 0.3978637,0.39488 0.39687499,0.39687499 0 0 1 -0.3938743,0.39886 0.39687499,0.39687499 0 0 1 -0.3998506,-0.39287" />
    <path
       style="fill:#00c8ff;fill-opacity:1;stroke:none;stroke-width:0.26458332;stroke-linecap:round;stroke-miterlimit:4;stroke-dasharray:none;stroke-opacity:1"
       id="path823-0"
       sodipodi:type="arc"
       sodipodi:cx="4.1011424"
       sodipodi:cy="294.10959"
       sodipodi:rx="0.39687499"
       sodipodi:ry="0.39687499"
       sodipodi:start="3.1416112"
       sodipodi:end="3.1315221"
       sodipodi:open="true"
       d="m 3.7042674,294.10958 a 0.39687499,0.39687499 0 0 1 0.3958813,-0.39687 0.39687499,0.39687499 0 0 1 0.3978637,0.39488 0.39687499,0.39687499 0 0 1 -0.3938743,0.39886 0.39687499,0.39687499 0 0 1 -0.3998506,-0.39286" />
    <path
       style="fill:#00c8ff;fill-opacity:1;stroke:none;stroke-width:0.26458332;stroke-linecap:round;stroke-miterlimit:4;stroke-dasharray:none;stroke-opacity:1"
       id="path823-5"
       sodipodi:type="arc"
       sodipodi:cx="7.0114584"
       sodipodi:cy="291.17914"
       sodipodi:rx="0.39687499"
       sodipodi:ry="0.39687499"
       sodipodi:start="3.1416112"
       sodipodi:end="3.1315221"
       sodipodi:open="true"
       d="m 6.6145834,291.17913 a 0.39687499,0.39687499 0 0 1 0.3958813,-0.39687 0.39687499,0.39687499 0 0 1 0.3978637,0.39488 0.39687499,0.39687499 0 0 1 -0.3938743,0.39886 0.39687499,0.39687499 0 0 1 -0.3998506,-0.39287" />
    <path
       style="fill:#00c8ff;fill-opacity:1;stroke:none;stroke-width:0.26458332;stroke-linecap:round;stroke-miterlimit:4;stroke-dasharray:none;stroke-opacity:1"
       id="path823-4"
       sodipodi:type="arc"
       sodipodi:cx="6.7468548"
       sodipodi:cy="292.23346"
       sodipodi:rx="0.39687499"
       sodipodi:ry="0.39687499"
       sodipodi:start="3.1416112"
       sodipodi:end="3.1315221"
       sodipodi:open="true"
       d="m 6.3499798,292.23345 a 0.39687499,0.39687499 0 0 1 0.3958813,-0.39686 0.39687499,0.39687499 0 0 1 0.3978637,0.39487 0.39687499,0.39687499 0 0 1 -0.3938743,0.39886 0.39687499,0.39687499 0 0 1 -0.3998506,-0.39286" />
    <path
       style="fill:#00c8ff;fill-opacity:1;stroke:none;stroke-width:0.26458332;stroke-linecap:round;stroke-miterlimit:4;stroke-dasharray:none;stroke-opacity:1"
       id="path823-1"
       sodipodi:type="arc"
       sodipodi:cx="6.7468548"
       sodipodi:cy="293.55637"
       sodipodi:rx="0.39687499"
       sodipodi:ry="0.39687499"
       sodipodi:start="3.1416112"
       sodipodi:end="3.1315221"
       sodipodi:open="true"
       d="m 6.3499798,293.55636 a 0.39687499,0.39687499 0 0 1 0.3958813,-0.39687 0.39687499,0.39687499 0 0 1 0.3978637,0.39488 0.39687499,0.39687499 0 0 1 -0.3938743,0.39886 0.39687499,0.39687499 0 0 1 -0.3998506,-0.39287" />
    <path
       style="fill:#00c8ff;fill-opacity:1;stroke:none;stroke-width:0.26458332;stroke-linecap:round;stroke-miterlimit:4;stroke-dasharray:none;stroke-opacity:1"
       id="path823-87"
       sodipodi:type="arc"
       sodipodi:cx="6.7468748"
       sodipodi:cy="294.8833"
       sodipodi:rx="0.39687499"
       sodipodi:ry="0.39687499"
       sodipodi:start="3.1416112"
       sodipodi:end="3.1315221"
       sodipodi:open="true"
       d="m 6.3499998,294.88329 a 0.39687499,0.39687499 0 0 1 0.3958813,-0.39686 0.39687499,0.39687499 0 0 1 0.3978637,0.39488 0.39687499,0.39687499 0 0 1 -0.3938743,0.39885 0.39687499,0.39687499 0 0 1 -0.3998506,-0.39286" />
    <path
       style="fill:#00c8ff;fill-opacity:1;stroke:none;stroke-width:0.26458332;stroke-linecap:round;stroke-miterlimit:4;stroke-dasharray:none;stroke-opacity:1"
       id="path823-2"
       sodipodi:type="arc"
       sodipodi:cx="-10.186458"
       sodipodi:cy="290.38538"
       sodipodi:rx="0.39687499"
       sodipodi:ry="0.39687499"
       sodipodi:start="3.1416112"
       sodipodi:end="3.1315221"
       sodipodi:open="true"
       d="m -10.583333,290.38537 a 0.39687499,0.39687499 0 0 1 0.395882,-0.39687 0.39687499,0.39687499 0 0 1 0.3978633,0.39488 0.39687499,0.39687499 0 0 1 -0.3938743,0.39886 0.39687499,0.39687499 0 0 1 -0.399851,-0.39287"
       transform="scale(-1,1)" />
    <path
       style="fill:#00c8ff;fill-opacity:1;stroke:none;stroke-width:0.26458332;stroke-linecap:round;stroke-miterlimit:4;stroke-dasharray:none;stroke-opacity:1"
       id="path823-9-0"
       sodipodi:type="arc"
       sodipodi:cx="-10.980208"
       sodipodi:cy="291.44373"
       sodipodi:rx="0.39687499"
       sodipodi:ry="0.39687499"
       sodipodi:start="3.1416112"
       sodipodi:end="3.1315221"
       sodipodi:open="true"
       d="m -11.377083,291.44372 a 0.39687499,0.39687499 0 0 1 0.395881,-0.39687 0.39687499,0.39687499 0 0 1 0.397864,0.39488 0.39687499,0.39687499 0 0 1 -0.393875,0.39886 0.39687499,0.39687499 0 0 1 -0.39985,-0.39287"
       transform="scale(-1,1)" />
    <path
       style="fill:#00c8ff;fill-opacity:1;stroke:none;stroke-width:0.26458332;stroke-linecap:round;stroke-miterlimit:4;stroke-dasharray:none;stroke-opacity:1"
       id="path823-8-5"
       sodipodi:type="arc"
       sodipodi:cx="-11.509375"
       sodipodi:cy="292.76663"
       sodipodi:rx="0.39687499"
       sodipodi:ry="0.39687499"
       sodipodi:start="3.1416112"
       sodipodi:end="3.1315221"
       sodipodi:open="true"
       d="m -11.90625,292.76662 a 0.39687499,0.39687499 0 0 1 0.395882,-0.39686 0.39687499,0.39687499 0 0 1 0.397863,0.39488 0.39687499,0.39687499 0 0 1 -0.393874,0.39886 0.39687499,0.39687499 0 0 1 -0.39985,-0.39287"
       transform="scale(-1,1)" />
    <path
       style="fill:#00c8ff;fill-opacity:1;stroke:none;stroke-width:0.26458332;stroke-linecap:round;stroke-miterlimit:4;stroke-dasharray:none;stroke-opacity:1"
       id="path823-0-2"
       sodipodi:type="arc"
       sodipodi:cx="-11.773958"
       sodipodi:cy="294.08954"
       sodipodi:rx="0.39687499"
       sodipodi:ry="0.39687499"
       sodipodi:start="3.1416112"
       sodipodi:end="3.1315221"
       sodipodi:open="true"
       d="m -12.170833,294.08953 a 0.39687499,0.39687499 0 0 1 0.395881,-0.39687 0.39687499,0.39687499 0 0 1 0.397864,0.39488 0.39687499,0.39687499 0 0 1 -0.393875,0.39886 0.39687499,0.39687499 0 0 1 -0.39985,-0.39286"
       transform="scale(-1,1)" />
    <path
       style="fill:#00c8ff;fill-opacity:1;stroke:none;stroke-width:0.26458332;stroke-linecap:round;stroke-miterlimit:4;stroke-dasharray:none;stroke-opacity:1"
       id="path823-5-2"
       sodipodi:type="arc"
       sodipodi:cx="-8.8635216"
       sodipodi:cy="291.18314"
       sodipodi:rx="0.39687499"
       sodipodi:ry="0.39687499"
       sodipodi:start="3.1416112"
       sodipodi:end="3.1315221"
       sodipodi:open="true"
       d="m -9.2603966,291.18313 a 0.39687499,0.39687499 0 0 1 0.3958814,-0.39687 0.39687499,0.39687499 0 0 1 0.3978636,0.39488 0.39687499,0.39687499 0 0 1 -0.3938743,0.39886 0.39687499,0.39687499 0 0 1 -0.3998505,-0.39287"
       transform="scale(-1,1)" />
    <path
       style="fill:#00c8ff;fill-opacity:1;stroke:none;stroke-width:0.26458332;stroke-linecap:round;stroke-miterlimit:4;stroke-dasharray:none;stroke-opacity:1"
       id="path823-4-6"
       sodipodi:type="arc"
       sodipodi:cx="-9.1281252"
       sodipodi:cy="292.23746"
       sodipodi:rx="0.39687499"
       sodipodi:ry="0.39687499"
       sodipodi:start="3.1416112"
       sodipodi:end="3.1315221"
       sodipodi:open="true"
       d="m -9.5250002,292.23745 a 0.39687499,0.39687499 0 0 1 0.3958813,-0.39687 0.39687499,0.39687499 0 0 1 0.3978637,0.39488 0.39687499,0.39687499 0 0 1 -0.3938743,0.39886 0.39687499,0.39687499 0 0 1 -0.3998506,-0.39287"
       transform="scale(-1,1)" />
    <path
       style="fill:#00c8ff;fill-opacity:1;stroke:none;stroke-width:0.26458332;stroke-linecap:round;stroke-miterlimit:4;stroke-dasharray:none;stroke-opacity:1"
       id="path823-1-7"
       sodipodi:type="arc"
       sodipodi:cx="-9.1281252"
       sodipodi:cy="293.56036"
       sodipodi:rx="0.39687499"
       sodipodi:ry="0.39687499"
       sodipodi:start="3.1416112"
       sodipodi:end="3.1315221"
       sodipodi:open="true"
       d="m -9.5250002,293.56036 a 0.39687499,0.39687499 0 0 1 0.3958813,-0.39687 0.39687499,0.39687499 0 0 1 0.3978637,0.39488 0.39687499,0.39687499 0 0 1 -0.3938743,0.39886 0.39687499,0.39687499 0 0 1 -0.3998506,-0.39287"
       transform="scale(-1,1)" />
    <path
       style="fill:#00c8ff;fill-opacity:1;stroke:none;stroke-width:0.26458332;stroke-linecap:round;stroke-miterlimit:4;stroke-dasharray:none;stroke-opacity:1"
       id="path823-87-1"
       sodipodi:type="arc"
       sodipodi:cx="-9.1281052"
       sodipodi:cy="294.8873"
       sodipodi:rx="0.39687499"
       sodipodi:ry="0.39687499"
       sodipodi:start="3.1416112"
       sodipodi:end="3.1315221"
       sodipodi:open="true"
       d="m -9.5249802,294.88729 a 0.39687499,0.39687499 0 0 1 0.3958814,-0.39687 0.39687499,0.39687499 0 0 1 0.3978636,0.39488 0.39687499,0.39687499 0 0 1 -0.3938743,0.39886 0.39687499,0.39687499 0 0 1 -0.3998505,-0.39286"
       transform="scale(-1,1)" />
  </g>
</svg>
